<svg xmlns="http://www.w3.org/2000/svg" xmlns:xlink="http://www.w3.org/1999/xlink" width="1920" zoomAndPan="magnify" viewBox="0 0 1440 809.999993" height="1080" preserveAspectRatio="xMidYMid meet" version="1.0"><defs><filter x="0%" y="0%" width="100%" height="100%" id="f2046fca7e"><feColorMatrix values="0 0 0 0 1 0 0 0 0 1 0 0 0 0 1 0 0 0 1 0" color-interpolation-filters="sRGB"/></filter><mask id="b71a7e0b0b"><g filter="url(#f2046fca7e)"><rect x="-144" width="1728" fill="#000000" y="-80.999999" height="971.999992" fill-opacity="0.28"/></g></mask><clipPath id="83d0049f4a"><path d="M 2 2 L 51 2 L 51 51 L 2 51 Z M 2 2 " clip-rule="nonzero"/></clipPath><clipPath id="fb672cb5db"><path d="M 26.402344 0.078125 L 52.390625 26.0625 L 26.402344 52.050781 L 0.417969 26.0625 Z M 26.402344 0.078125 " clip-rule="nonzero"/></clipPath><clipPath id="8124a75128"><path d="M 26.402344 0.078125 L 52.390625 26.0625 L 26.402344 52.050781 L 0.417969 26.0625 Z M 26.402344 0.078125 " clip-rule="nonzero"/></clipPath><clipPath id="ced8a49e24"><path d="M 1 1 L 51 1 L 51 51 L 1 51 Z M 1 1 " clip-rule="nonzero"/></clipPath><clipPath id="3f9081b3d5"><path d="M 26.402344 0.078125 L 52.390625 26.0625 L 26.402344 52.050781 L 0.417969 26.0625 Z M 26.402344 0.078125 " clip-rule="nonzero"/></clipPath><clipPath id="d3ee7e049e"><path d="M 26.402344 0.078125 L 52.390625 26.0625 L 26.402344 52.050781 L 0.417969 26.0625 Z M 26.402344 0.078125 " clip-rule="nonzero"/></clipPath><clipPath id="69b885b196"><rect x="0" width="53" y="0" height="53"/></clipPath><mask id="f30ab237e9"><g filter="url(#f2046fca7e)"><rect x="-144" width="1728" fill="#000000" y="-80.999999" height="971.999992" fill-opacity="0.28"/></g></mask><clipPath id="e1c5b21717"><path d="M 3 2 L 53 2 L 53 52 L 3 52 Z M 3 2 " clip-rule="nonzero"/></clipPath><clipPath id="6de9db71c4"><path d="M 27.71875 0.0546875 L 54.234375 26.574219 L 27.71875 53.089844 L 1.203125 26.574219 Z M 27.71875 0.0546875 " clip-rule="nonzero"/></clipPath><clipPath id="0771bafcd7"><path d="M 27.71875 0.0546875 L 54.234375 26.574219 L 27.71875 53.089844 L 1.203125 26.574219 Z M 27.71875 0.0546875 " clip-rule="nonzero"/></clipPath><clipPath id="b7ac556f8d"><path d="M 2 1 L 53 1 L 53 52 L 2 52 Z M 2 1 " clip-rule="nonzero"/></clipPath><clipPath id="ebd660646a"><path d="M 27.71875 0.0546875 L 54.234375 26.574219 L 27.71875 53.089844 L 1.203125 26.574219 Z M 27.71875 0.0546875 " clip-rule="nonzero"/></clipPath><clipPath id="1792ac5ce7"><path d="M 27.71875 0.0546875 L 54.234375 26.574219 L 27.71875 53.089844 L 1.203125 26.574219 Z M 27.71875 0.0546875 " clip-rule="nonzero"/></clipPath><clipPath id="d0ed5bc739"><rect x="0" width="55" y="0" height="54"/></clipPath><mask id="d4c76f6414"><g filter="url(#f2046fca7e)"><rect x="-144" width="1728" fill="#000000" y="-80.999999" height="971.999992" fill-opacity="0.28"/></g></mask><clipPath id="d9f6578735"><path d="M 2 2 L 54 2 L 54 54 L 2 54 Z M 2 2 " clip-rule="nonzero"/></clipPath><clipPath id="bbaf76c1d0"><path d="M 28.09375 0.28125 L 56.203125 28.390625 L 28.09375 56.496094 L -0.0117188 28.390625 Z M 28.09375 0.28125 " clip-rule="nonzero"/></clipPath><clipPath id="236cb5adb1"><path d="M 28.09375 0.28125 L 56.203125 28.390625 L 28.09375 56.496094 L -0.0117188 28.390625 Z M 28.09375 0.28125 " clip-rule="nonzero"/></clipPath><clipPath id="df2afdd103"><path d="M 2 2 L 55 2 L 55 55 L 2 55 Z M 2 2 " clip-rule="nonzero"/></clipPath><clipPath id="a2b64928ef"><path d="M 28.09375 0.28125 L 56.203125 28.390625 L 28.09375 56.496094 L -0.0117188 28.390625 Z M 28.09375 0.28125 " clip-rule="nonzero"/></clipPath><clipPath id="dec4580ff7"><path d="M 28.09375 0.28125 L 56.203125 28.390625 L 28.09375 56.496094 L -0.0117188 28.390625 Z M 28.09375 0.28125 " clip-rule="nonzero"/></clipPath><clipPath id="270bc138a2"><rect x="0" width="57" y="0" height="57"/></clipPath><clipPath id="7d6ffa57e9"><path d="M 602 225 L 748 225 L 748 371 L 602 371 Z M 602 225 " clip-rule="nonzero"/></clipPath><clipPath id="85d926ab46"><path d="M 674.632812 219.449219 L 753.652344 298.46875 L 674.632812 377.488281 L 595.617188 298.46875 Z M 674.632812 219.449219 " clip-rule="nonzero"/></clipPath><clipPath id="b2aa7e07af"><path d="M 674.632812 219.449219 L 753.652344 298.46875 L 674.632812 377.488281 L 595.617188 298.46875 Z M 674.632812 219.449219 " clip-rule="nonzero"/></clipPath><clipPath id="14201275ac"><path d="M 600 224 L 749 224 L 749 373 L 600 373 Z M 600 224 " clip-rule="nonzero"/></clipPath><clipPath id="8a7bb2f8b4"><path d="M 674.632812 219.449219 L 753.652344 298.46875 L 674.632812 377.488281 L 595.617188 298.46875 Z M 674.632812 219.449219 " clip-rule="nonzero"/></clipPath><clipPath id="750f7081e2"><path d="M 674.632812 219.449219 L 753.652344 298.46875 L 674.632812 377.488281 L 595.617188 298.46875 Z M 674.632812 219.449219 " clip-rule="nonzero"/></clipPath><clipPath id="1c240a532e"><path d="M 606 407 L 743 407 L 743 544 L 606 544 Z M 606 407 " clip-rule="nonzero"/></clipPath><clipPath id="8c37f98e97"><path d="M 674.632812 401.285156 L 748.878906 475.53125 L 674.632812 549.777344 L 600.386719 475.53125 Z M 674.632812 401.285156 " clip-rule="nonzero"/></clipPath><clipPath id="73d919e15c"><path d="M 674.632812 401.285156 L 748.878906 475.53125 L 674.632812 549.777344 L 600.386719 475.53125 Z M 674.632812 401.285156 " clip-rule="nonzero"/></clipPath><clipPath id="882dd5e981"><path d="M 605 406 L 745 406 L 745 546 L 605 546 Z M 605 406 " clip-rule="nonzero"/></clipPath><clipPath id="fb50b300bc"><path d="M 674.632812 401.285156 L 748.878906 475.53125 L 674.632812 549.777344 L 600.386719 475.53125 Z M 674.632812 401.285156 " clip-rule="nonzero"/></clipPath><clipPath id="6382fdba07"><path d="M 674.632812 401.285156 L 748.878906 475.53125 L 674.632812 549.777344 L 600.386719 475.53125 Z M 674.632812 401.285156 " clip-rule="nonzero"/></clipPath><mask id="23dcb2e230"><g filter="url(#f2046fca7e)"><rect x="-144" width="1728" fill="#000000" y="-80.999999" height="971.999992" fill-opacity="0.28"/></g></mask><clipPath id="74ac3c95f7"><path d="M 2 2 L 50 2 L 50 51 L 2 51 Z M 2 2 " clip-rule="nonzero"/></clipPath><clipPath id="470aba948b"><path d="M 26.03125 0.824219 L 51.488281 26.28125 L 26.03125 51.734375 L 0.578125 26.28125 Z M 26.03125 0.824219 " clip-rule="nonzero"/></clipPath><clipPath id="a8f18d6ae5"><path d="M 26.03125 0.824219 L 51.488281 26.28125 L 26.03125 51.734375 L 0.578125 26.28125 Z M 26.03125 0.824219 " clip-rule="nonzero"/></clipPath><clipPath id="cfdd8bada7"><rect x="0" width="52" y="0" height="53"/></clipPath><clipPath id="5161921f4b"><path d="M 607 579 L 741 579 L 741 713 L 607 713 Z M 607 579 " clip-rule="nonzero"/></clipPath><clipPath id="a3b72dad49"><path d="M 673.796875 573.957031 L 745.921875 646.082031 L 673.796875 718.207031 L 601.671875 646.082031 Z M 673.796875 573.957031 " clip-rule="nonzero"/></clipPath><clipPath id="8b51dc48ac"><path d="M 673.796875 573.957031 L 745.921875 646.082031 L 673.796875 718.207031 L 601.671875 646.082031 Z M 673.796875 573.957031 " clip-rule="nonzero"/></clipPath><clipPath id="384b5af056"><path d="M 606 578 L 742 578 L 742 714 L 606 714 Z M 606 578 " clip-rule="nonzero"/></clipPath><clipPath id="6224ce0a9d"><path d="M 673.796875 573.957031 L 745.921875 646.082031 L 673.796875 718.207031 L 601.671875 646.082031 Z M 673.796875 573.957031 " clip-rule="nonzero"/></clipPath><clipPath id="29c99b97e0"><path d="M 673.796875 573.957031 L 745.921875 646.082031 L 673.796875 718.207031 L 601.671875 646.082031 Z M 673.796875 573.957031 " clip-rule="nonzero"/></clipPath><clipPath id="526b9f185c"><path d="M 601 64 L 740 64 L 740 203 L 601 203 Z M 601 64 " clip-rule="nonzero"/></clipPath><clipPath id="e9d641e235"><path d="M 670.714844 58.683594 L 745.492188 133.460938 L 670.714844 208.238281 L 595.9375 133.460938 Z M 670.714844 58.683594 " clip-rule="nonzero"/></clipPath><clipPath id="461a9bc254"><path d="M 670.714844 58.683594 L 745.492188 133.460938 L 670.714844 208.238281 L 595.9375 133.460938 Z M 670.714844 58.683594 " clip-rule="nonzero"/></clipPath><clipPath id="5e87c3841f"><path d="M 600 63 L 741 63 L 741 204 L 600 204 Z M 600 63 " clip-rule="nonzero"/></clipPath><clipPath id="832237bd8c"><path d="M 670.714844 58.683594 L 745.492188 133.460938 L 670.714844 208.238281 L 595.9375 133.460938 Z M 670.714844 58.683594 " clip-rule="nonzero"/></clipPath><clipPath id="d2b4e3aa8c"><path d="M 670.714844 58.683594 L 745.492188 133.460938 L 670.714844 208.238281 L 595.9375 133.460938 Z M 670.714844 58.683594 " clip-rule="nonzero"/></clipPath><clipPath id="84f5ffbd11"><path d="M 646.933594 109.894531 L 694.183594 109.894531 L 694.183594 157.144531 L 646.933594 157.144531 Z M 646.933594 109.894531 " clip-rule="nonzero"/></clipPath><clipPath id="3fbd37a807"><path d="M 655 109.894531 L 672 109.894531 L 672 153 L 655 153 Z M 655 109.894531 " clip-rule="nonzero"/></clipPath><clipPath id="5cccafcb08"><path d="M 669 132 L 694.183594 132 L 694.183594 157.144531 L 669 157.144531 Z M 669 132 " clip-rule="nonzero"/></clipPath><clipPath id="04850c9415"><path d="M 644.742188 301 L 682 301 L 682 319 L 644.742188 319 Z M 644.742188 301 " clip-rule="nonzero"/></clipPath><clipPath id="770cdd2f2c"><path d="M 662 270.535156 L 698.742188 270.535156 L 698.742188 319 L 662 319 Z M 662 270.535156 " clip-rule="nonzero"/></clipPath><clipPath id="7ac08df46e"><path d="M 679 652 L 695.664062 652 L 695.664062 668.339844 L 679 668.339844 Z M 679 652 " clip-rule="nonzero"/></clipPath></defs><rect x="-144" width="1728" fill="#ffffff" y="-80.999999" height="971.999992" fill-opacity="1"/><rect x="-144" width="1728" fill="#ffffff" y="-80.999999" height="971.999992" fill-opacity="1"/><g mask="url(#b71a7e0b0b)"><g transform="matrix(1, 0, 0, 1, 580, 449)"><g clip-path="url(#69b885b196)"><g clip-path="url(#83d0049f4a)"><g clip-path="url(#fb672cb5db)"><g clip-path="url(#8124a75128)"><path fill="#cdcdcd" d="M 29.074219 3.292969 L 49.410156 23.632812 C 49.765625 23.988281 50.039062 24.394531 50.230469 24.859375 C 50.421875 25.320312 50.519531 25.804688 50.519531 26.304688 C 50.519531 26.804688 50.421875 27.285156 50.230469 27.75 C 50.039062 28.210938 49.765625 28.617188 49.410156 28.972656 L 29.074219 49.3125 C 28.71875 49.667969 28.308594 49.9375 27.847656 50.128906 C 27.386719 50.324219 26.902344 50.417969 26.402344 50.417969 C 25.902344 50.417969 25.421875 50.324219 24.957031 50.128906 C 24.496094 49.9375 24.085938 49.667969 23.734375 49.3125 L 3.394531 28.972656 C 3.039062 28.617188 2.765625 28.210938 2.574219 27.75 C 2.382812 27.285156 2.289062 26.804688 2.289062 26.304688 C 2.289062 25.804688 2.382812 25.320312 2.574219 24.859375 C 2.765625 24.394531 3.039062 23.988281 3.394531 23.632812 L 23.734375 3.292969 C 24.085938 2.941406 24.496094 2.667969 24.957031 2.476562 C 25.421875 2.285156 25.902344 2.1875 26.402344 2.1875 C 26.902344 2.1875 27.386719 2.285156 27.847656 2.476562 C 28.308594 2.667969 28.71875 2.941406 29.074219 3.292969 Z M 29.074219 3.292969 " fill-opacity="1" fill-rule="nonzero"/></g></g></g><g clip-path="url(#ced8a49e24)"><g clip-path="url(#3f9081b3d5)"><g clip-path="url(#d3ee7e049e)"><path fill="#cdcdcd" d="M 23.460938 49.585938 L 3.121094 29.246094 C 2.925781 29.054688 2.753906 28.84375 2.601562 28.617188 C 2.453125 28.386719 2.324219 28.148438 2.21875 27.894531 C 2.113281 27.644531 2.035156 27.382812 1.984375 27.117188 C 1.929688 26.847656 1.902344 26.578125 1.902344 26.304688 C 1.902344 26.03125 1.929688 25.757812 1.984375 25.492188 C 2.035156 25.222656 2.113281 24.964844 2.21875 24.710938 C 2.324219 24.457031 2.453125 24.21875 2.601562 23.992188 C 2.753906 23.761719 2.925781 23.554688 3.121094 23.359375 L 23.460938 3.019531 C 23.652344 2.828125 23.863281 2.65625 24.089844 2.503906 C 24.316406 2.351562 24.558594 2.222656 24.808594 2.121094 C 25.0625 2.015625 25.324219 1.9375 25.589844 1.882812 C 25.859375 1.828125 26.128906 1.804688 26.402344 1.804688 C 26.675781 1.804688 26.945312 1.828125 27.214844 1.882812 C 27.484375 1.9375 27.742188 2.015625 27.996094 2.121094 C 28.25 2.222656 28.488281 2.351562 28.714844 2.503906 C 28.941406 2.65625 29.152344 2.828125 29.347656 3.019531 L 49.6875 23.359375 C 49.878906 23.554688 50.050781 23.761719 50.203125 23.992188 C 50.355469 24.21875 50.484375 24.457031 50.585938 24.710938 C 50.691406 24.964844 50.769531 25.222656 50.824219 25.492188 C 50.875 25.757812 50.902344 26.03125 50.902344 26.304688 C 50.902344 26.578125 50.875 26.847656 50.824219 27.117188 C 50.769531 27.382812 50.691406 27.644531 50.585938 27.894531 C 50.484375 28.148438 50.355469 28.386719 50.203125 28.617188 C 50.050781 28.84375 49.878906 29.054688 49.6875 29.246094 L 29.347656 49.585938 C 29.152344 49.78125 28.941406 49.953125 28.714844 50.101562 C 28.488281 50.253906 28.25 50.382812 27.996094 50.488281 C 27.742188 50.59375 27.484375 50.671875 27.214844 50.722656 C 26.945312 50.777344 26.675781 50.804688 26.402344 50.804688 C 26.128906 50.804688 25.859375 50.777344 25.589844 50.722656 C 25.324219 50.671875 25.0625 50.59375 24.808594 50.488281 C 24.558594 50.382812 24.316406 50.253906 24.089844 50.101562 C 23.863281 49.953125 23.652344 49.78125 23.460938 49.585938 Z M 28.796875 3.570312 C 28.480469 3.25 28.113281 3.007812 27.699219 2.835938 C 27.285156 2.664062 26.851562 2.578125 26.402344 2.578125 C 25.953125 2.578125 25.523438 2.664062 25.105469 2.835938 C 24.691406 3.007812 24.324219 3.25 24.007812 3.570312 L 3.667969 23.90625 C 3.351562 24.226562 3.105469 24.59375 2.933594 25.007812 C 2.761719 25.421875 2.675781 25.855469 2.675781 26.304688 C 2.675781 26.753906 2.761719 27.183594 2.933594 27.601562 C 3.105469 28.015625 3.351562 28.382812 3.667969 28.699219 L 24.007812 49.039062 C 24.324219 49.355469 24.691406 49.601562 25.105469 49.773438 C 25.523438 49.945312 25.953125 50.03125 26.402344 50.03125 C 26.851562 50.03125 27.285156 49.945312 27.699219 49.773438 C 28.113281 49.601562 28.480469 49.355469 28.796875 49.039062 L 49.136719 28.699219 C 49.457031 28.382812 49.699219 28.015625 49.871094 27.601562 C 50.042969 27.183594 50.128906 26.753906 50.128906 26.304688 C 50.128906 25.855469 50.042969 25.421875 49.871094 25.007812 C 49.699219 24.59375 49.457031 24.226562 49.136719 23.90625 Z M 28.796875 3.570312 " fill-opacity="1" fill-rule="nonzero"/></g></g></g></g></g></g><g mask="url(#f30ab237e9)"><g transform="matrix(1, 0, 0, 1, 643, 35)"><g clip-path="url(#d0ed5bc739)"><g clip-path="url(#e1c5b21717)"><g clip-path="url(#6de9db71c4)"><g clip-path="url(#0771bafcd7)"><path fill="#cdcdcd" d="M 30.421875 3.316406 L 51.039062 23.933594 C 51.398438 24.292969 51.675781 24.707031 51.867188 25.175781 C 52.0625 25.644531 52.160156 26.132812 52.160156 26.640625 C 52.160156 27.148438 52.0625 27.636719 51.867188 28.105469 C 51.675781 28.574219 51.398438 28.988281 51.039062 29.34375 L 30.421875 49.960938 C 30.066406 50.320312 29.652344 50.597656 29.183594 50.789062 C 28.714844 50.984375 28.226562 51.082031 27.71875 51.082031 C 27.210938 51.082031 26.722656 50.984375 26.253906 50.789062 C 25.785156 50.597656 25.371094 50.320312 25.011719 49.960938 L 4.394531 29.34375 C 4.039062 28.988281 3.761719 28.574219 3.566406 28.105469 C 3.371094 27.636719 3.277344 27.148438 3.277344 26.640625 C 3.277344 26.132812 3.371094 25.644531 3.566406 25.175781 C 3.761719 24.707031 4.039062 24.292969 4.394531 23.933594 L 25.011719 3.316406 C 25.371094 2.960938 25.785156 2.683594 26.253906 2.488281 C 26.722656 2.292969 27.210938 2.195312 27.71875 2.195312 C 28.226562 2.195312 28.714844 2.292969 29.183594 2.488281 C 29.652344 2.683594 30.066406 2.960938 30.421875 3.316406 Z M 30.421875 3.316406 " fill-opacity="1" fill-rule="nonzero"/></g></g></g><g clip-path="url(#b7ac556f8d)"><g clip-path="url(#ebd660646a)"><g clip-path="url(#1792ac5ce7)"><path fill="#cdcdcd" d="M 24.734375 50.238281 L 4.117188 29.621094 C 3.921875 29.425781 3.75 29.214844 3.59375 28.984375 C 3.441406 28.753906 3.3125 28.507812 3.207031 28.253906 C 3.097656 27.996094 3.019531 27.734375 2.964844 27.460938 C 2.910156 27.191406 2.882812 26.917969 2.882812 26.640625 C 2.882812 26.363281 2.910156 26.089844 2.964844 25.816406 C 3.019531 25.542969 3.097656 25.28125 3.207031 25.023438 C 3.3125 24.769531 3.441406 24.527344 3.59375 24.296875 C 3.75 24.066406 3.921875 23.851562 4.117188 23.65625 L 24.734375 3.039062 C 24.929688 2.84375 25.144531 2.671875 25.375 2.515625 C 25.605469 2.363281 25.847656 2.234375 26.101562 2.125 C 26.359375 2.019531 26.625 1.941406 26.894531 1.886719 C 27.167969 1.832031 27.441406 1.804688 27.71875 1.804688 C 27.996094 1.804688 28.269531 1.832031 28.539062 1.886719 C 28.8125 1.941406 29.078125 2.019531 29.332031 2.125 C 29.589844 2.234375 29.832031 2.363281 30.0625 2.515625 C 30.292969 2.671875 30.503906 2.84375 30.703125 3.039062 L 51.316406 23.65625 C 51.511719 23.851562 51.6875 24.066406 51.839844 24.296875 C 51.996094 24.527344 52.125 24.769531 52.230469 25.023438 C 52.335938 25.28125 52.417969 25.542969 52.46875 25.816406 C 52.523438 26.089844 52.550781 26.363281 52.550781 26.640625 C 52.550781 26.917969 52.523438 27.191406 52.46875 27.460938 C 52.417969 27.734375 52.335938 27.996094 52.230469 28.253906 C 52.125 28.507812 51.996094 28.753906 51.839844 28.984375 C 51.6875 29.214844 51.511719 29.425781 51.316406 29.621094 L 30.703125 50.238281 C 30.503906 50.433594 30.292969 50.609375 30.0625 50.761719 C 29.832031 50.917969 29.589844 51.046875 29.332031 51.152344 C 29.078125 51.257812 28.8125 51.335938 28.539062 51.390625 C 28.269531 51.445312 27.996094 51.472656 27.71875 51.472656 C 27.441406 51.472656 27.167969 51.445312 26.894531 51.390625 C 26.625 51.335938 26.359375 51.257812 26.101562 51.152344 C 25.847656 51.046875 25.605469 50.917969 25.375 50.761719 C 25.144531 50.609375 24.929688 50.433594 24.734375 50.238281 Z M 30.144531 3.597656 C 29.824219 3.273438 29.453125 3.027344 29.03125 2.851562 C 28.609375 2.679688 28.171875 2.589844 27.71875 2.589844 C 27.261719 2.589844 26.824219 2.679688 26.402344 2.851562 C 25.984375 3.027344 25.613281 3.273438 25.289062 3.597656 L 4.675781 24.210938 C 4.351562 24.535156 4.105469 24.90625 3.929688 25.324219 C 3.757812 25.746094 3.667969 26.183594 3.667969 26.640625 C 3.667969 27.09375 3.757812 27.53125 3.929688 27.953125 C 4.105469 28.375 4.351562 28.746094 4.675781 29.066406 L 25.289062 49.683594 C 25.613281 50.003906 25.984375 50.253906 26.402344 50.425781 C 26.824219 50.601562 27.261719 50.6875 27.71875 50.6875 C 28.171875 50.6875 28.609375 50.601562 29.03125 50.425781 C 29.453125 50.253906 29.824219 50.003906 30.144531 49.683594 L 50.761719 29.066406 C 51.082031 28.746094 51.332031 28.375 51.503906 27.953125 C 51.679688 27.53125 51.765625 27.09375 51.765625 26.640625 C 51.765625 26.183594 51.679688 25.746094 51.503906 25.324219 C 51.332031 24.90625 51.082031 24.535156 50.761719 24.210938 Z M 30.144531 3.597656 " fill-opacity="1" fill-rule="nonzero"/></g></g></g></g></g></g><g mask="url(#d4c76f6414)"><g transform="matrix(1, 0, 0, 1, 718, 271)"><g clip-path="url(#270bc138a2)"><g clip-path="url(#d9f6578735)"><g clip-path="url(#bbaf76c1d0)"><g clip-path="url(#236cb5adb1)"><path fill="#cdcdcd" d="M 30.929688 3.699219 L 52.523438 25.289062 C 52.707031 25.476562 52.875 25.679688 53.019531 25.898438 C 53.167969 26.117188 53.289062 26.347656 53.390625 26.589844 C 53.492188 26.835938 53.566406 27.085938 53.617188 27.34375 C 53.667969 27.601562 53.695312 27.863281 53.695312 28.125 C 53.695312 28.386719 53.667969 28.648438 53.617188 28.90625 C 53.566406 29.164062 53.492188 29.414062 53.390625 29.660156 C 53.289062 29.902344 53.167969 30.132812 53.019531 30.351562 C 52.875 30.570312 52.707031 30.773438 52.523438 30.957031 L 30.929688 52.550781 C 30.742188 52.738281 30.539062 52.902344 30.320312 53.050781 C 30.101562 53.195312 29.871094 53.320312 29.628906 53.421875 C 29.386719 53.519531 29.136719 53.597656 28.878906 53.648438 C 28.617188 53.699219 28.359375 53.726562 28.09375 53.726562 C 27.832031 53.726562 27.570312 53.699219 27.3125 53.648438 C 27.054688 53.597656 26.804688 53.519531 26.5625 53.421875 C 26.316406 53.320312 26.085938 53.195312 25.867188 53.050781 C 25.648438 52.902344 25.445312 52.738281 25.261719 52.550781 L 3.667969 30.957031 C 3.484375 30.773438 3.316406 30.570312 3.171875 30.351562 C 3.023438 30.132812 2.902344 29.902344 2.800781 29.660156 C 2.699219 29.414062 2.625 29.164062 2.570312 28.90625 C 2.519531 28.648438 2.496094 28.386719 2.496094 28.125 C 2.496094 27.863281 2.519531 27.601562 2.570312 27.34375 C 2.625 27.085938 2.699219 26.835938 2.800781 26.589844 C 2.902344 26.347656 3.023438 26.117188 3.171875 25.898438 C 3.316406 25.679688 3.484375 25.476562 3.667969 25.289062 L 25.261719 3.699219 C 25.445312 3.511719 25.648438 3.347656 25.867188 3.199219 C 26.085938 3.054688 26.316406 2.929688 26.5625 2.828125 C 26.804688 2.730469 27.054688 2.652344 27.3125 2.601562 C 27.570312 2.550781 27.832031 2.523438 28.09375 2.523438 C 28.359375 2.523438 28.617188 2.550781 28.878906 2.601562 C 29.136719 2.652344 29.386719 2.730469 29.628906 2.828125 C 29.871094 2.929688 30.101562 3.054688 30.320312 3.199219 C 30.539062 3.347656 30.742188 3.511719 30.929688 3.699219 Z M 30.929688 3.699219 " fill-opacity="1" fill-rule="nonzero"/></g></g></g><g clip-path="url(#df2afdd103)"><g clip-path="url(#a2b64928ef)"><g clip-path="url(#dec4580ff7)"><path fill="#cdcdcd" d="M 24.96875 52.84375 L 3.378906 31.25 C 3.171875 31.042969 2.988281 30.820312 2.828125 30.578125 C 2.667969 30.339844 2.53125 30.082031 2.421875 29.816406 C 2.308594 29.546875 2.226562 29.269531 2.171875 28.988281 C 2.113281 28.703125 2.085938 28.414062 2.085938 28.125 C 2.085938 27.835938 2.113281 27.546875 2.171875 27.261719 C 2.226562 26.976562 2.308594 26.703125 2.421875 26.433594 C 2.53125 26.164062 2.667969 25.910156 2.828125 25.667969 C 2.988281 25.429688 3.171875 25.203125 3.378906 25 L 24.96875 3.40625 C 25.175781 3.203125 25.398438 3.019531 25.640625 2.859375 C 25.882812 2.699219 26.136719 2.5625 26.40625 2.449219 C 26.671875 2.339844 26.949219 2.257812 27.234375 2.199219 C 27.519531 2.144531 27.804688 2.113281 28.09375 2.113281 C 28.386719 2.113281 28.671875 2.144531 28.957031 2.199219 C 29.242188 2.257812 29.519531 2.339844 29.785156 2.449219 C 30.054688 2.5625 30.308594 2.699219 30.550781 2.859375 C 30.792969 3.019531 31.015625 3.203125 31.21875 3.40625 L 52.8125 25 C 53.015625 25.203125 53.199219 25.429688 53.363281 25.667969 C 53.523438 25.910156 53.660156 26.164062 53.769531 26.433594 C 53.878906 26.703125 53.964844 26.976562 54.019531 27.261719 C 54.078125 27.546875 54.105469 27.835938 54.105469 28.125 C 54.105469 28.414062 54.078125 28.703125 54.019531 28.988281 C 53.964844 29.269531 53.878906 29.546875 53.769531 29.816406 C 53.660156 30.082031 53.523438 30.339844 53.363281 30.578125 C 53.199219 30.820312 53.015625 31.042969 52.8125 31.25 L 31.21875 52.84375 C 31.015625 53.046875 30.792969 53.230469 30.550781 53.390625 C 30.308594 53.550781 30.054688 53.6875 29.785156 53.796875 C 29.519531 53.910156 29.242188 53.992188 28.957031 54.050781 C 28.671875 54.105469 28.386719 54.132812 28.09375 54.132812 C 27.804688 54.132812 27.519531 54.105469 27.234375 54.050781 C 26.949219 53.992188 26.671875 53.910156 26.40625 53.796875 C 26.136719 53.6875 25.882812 53.550781 25.640625 53.390625 C 25.398438 53.230469 25.175781 53.046875 24.96875 52.84375 Z M 30.636719 3.988281 C 30.300781 3.652344 29.910156 3.390625 29.472656 3.210938 C 29.03125 3.027344 28.570312 2.9375 28.09375 2.9375 C 27.617188 2.9375 27.160156 3.027344 26.71875 3.210938 C 26.277344 3.390625 25.890625 3.652344 25.550781 3.988281 L 3.960938 25.582031 C 3.621094 25.917969 3.363281 26.308594 3.179688 26.75 C 3 27.1875 2.90625 27.648438 2.90625 28.125 C 2.90625 28.601562 3 29.058594 3.179688 29.5 C 3.363281 29.941406 3.621094 30.332031 3.960938 30.667969 L 25.550781 52.261719 C 25.890625 52.597656 26.277344 52.855469 26.71875 53.039062 C 27.160156 53.222656 27.617188 53.3125 28.09375 53.3125 C 28.570312 53.3125 29.03125 53.222656 29.472656 53.039062 C 29.910156 52.855469 30.300781 52.597656 30.636719 52.261719 L 52.230469 30.667969 C 52.566406 30.332031 52.828125 29.941406 53.007812 29.5 C 53.191406 29.058594 53.28125 28.601562 53.28125 28.125 C 53.28125 27.648438 53.191406 27.1875 53.007812 26.75 C 52.828125 26.308594 52.566406 25.917969 52.230469 25.582031 Z M 30.636719 3.988281 " fill-opacity="1" fill-rule="nonzero"/></g></g></g></g></g></g><g clip-path="url(#7d6ffa57e9)"><g clip-path="url(#85d926ab46)"><g clip-path="url(#b2aa7e07af)"><path fill="#a6a6a6" d="M 682.667969 229.132812 L 743.863281 290.328125 C 744.390625 290.859375 744.863281 291.429688 745.277344 292.050781 C 745.691406 292.671875 746.042969 293.328125 746.328125 294.015625 C 746.613281 294.703125 746.828125 295.414062 746.972656 296.144531 C 747.117188 296.878906 747.191406 297.617188 747.191406 298.363281 C 747.191406 299.109375 747.117188 299.847656 746.972656 300.578125 C 746.828125 301.308594 746.613281 302.019531 746.328125 302.710938 C 746.042969 303.398438 745.691406 304.054688 745.277344 304.671875 C 744.863281 305.292969 744.390625 305.867188 743.863281 306.394531 L 682.667969 367.59375 C 682.140625 368.121094 681.566406 368.589844 680.945312 369.003906 C 680.324219 369.417969 679.671875 369.769531 678.980469 370.054688 C 678.292969 370.339844 677.582031 370.554688 676.851562 370.703125 C 676.121094 370.847656 675.378906 370.917969 674.632812 370.917969 C 673.890625 370.917969 673.148438 370.847656 672.417969 370.703125 C 671.6875 370.554688 670.976562 370.339844 670.289062 370.054688 C 669.597656 369.769531 668.945312 369.417969 668.324219 369.003906 C 667.703125 368.589844 667.128906 368.121094 666.601562 367.59375 L 605.40625 306.394531 C 604.878906 305.867188 604.40625 305.292969 603.992188 304.671875 C 603.578125 304.054688 603.226562 303.398438 602.941406 302.710938 C 602.65625 302.019531 602.441406 301.308594 602.296875 300.578125 C 602.148438 299.847656 602.078125 299.109375 602.078125 298.363281 C 602.078125 297.617188 602.148438 296.878906 602.296875 296.144531 C 602.441406 295.414062 602.65625 294.703125 602.941406 294.015625 C 603.226562 293.328125 603.578125 292.671875 603.992188 292.050781 C 604.40625 291.429688 604.878906 290.859375 605.40625 290.328125 L 666.601562 229.132812 C 667.128906 228.605469 667.703125 228.132812 668.324219 227.71875 C 668.945312 227.304688 669.597656 226.957031 670.289062 226.671875 C 670.976562 226.382812 671.6875 226.167969 672.417969 226.023438 C 673.148438 225.878906 673.890625 225.804688 674.632812 225.804688 C 675.378906 225.804688 676.121094 225.878906 676.851562 226.023438 C 677.582031 226.167969 678.292969 226.382812 678.980469 226.671875 C 679.671875 226.957031 680.324219 227.304688 680.945312 227.71875 C 681.566406 228.132812 682.140625 228.605469 682.667969 229.132812 Z M 682.667969 229.132812 " fill-opacity="1" fill-rule="nonzero"/></g></g></g><g clip-path="url(#14201275ac)"><g clip-path="url(#8a7bb2f8b4)"><g clip-path="url(#750f7081e2)"><path fill="#a6a6a6" d="M 665.777344 368.417969 L 604.578125 307.21875 C 604 306.636719 603.480469 306.003906 603.023438 305.320312 C 602.566406 304.636719 602.183594 303.914062 601.867188 303.15625 C 601.554688 302.394531 601.316406 301.613281 601.15625 300.804688 C 600.996094 300 600.917969 299.183594 600.917969 298.363281 C 600.917969 297.539062 600.996094 296.726562 601.15625 295.917969 C 601.316406 295.113281 601.554688 294.328125 601.867188 293.570312 C 602.183594 292.808594 602.566406 292.089844 603.023438 291.40625 C 603.480469 290.71875 604 290.085938 604.578125 289.503906 L 665.777344 228.308594 C 666.359375 227.726562 666.992188 227.207031 667.675781 226.753906 C 668.359375 226.296875 669.082031 225.910156 669.84375 225.597656 C 670.601562 225.28125 671.386719 225.046875 672.191406 224.886719 C 673 224.726562 673.8125 224.644531 674.632812 224.644531 C 675.457031 224.644531 676.269531 224.726562 677.078125 224.886719 C 677.882812 225.046875 678.667969 225.28125 679.425781 225.597656 C 680.1875 225.910156 680.910156 226.296875 681.59375 226.753906 C 682.277344 227.207031 682.910156 227.726562 683.492188 228.308594 L 744.6875 289.503906 C 745.269531 290.085938 745.789062 290.71875 746.246094 291.40625 C 746.699219 292.089844 747.085938 292.808594 747.398438 293.570312 C 747.714844 294.328125 747.953125 295.113281 748.113281 295.917969 C 748.273438 296.726562 748.351562 297.539062 748.351562 298.363281 C 748.351562 299.183594 748.273438 300 748.113281 300.804688 C 747.953125 301.613281 747.714844 302.394531 747.398438 303.15625 C 747.085938 303.914062 746.699219 304.636719 746.246094 305.320312 C 745.789062 306.003906 745.269531 306.636719 744.6875 307.21875 L 683.492188 368.417969 C 682.910156 368.996094 682.277344 369.515625 681.59375 369.972656 C 680.910156 370.429688 680.1875 370.8125 679.425781 371.128906 C 678.667969 371.441406 677.882812 371.679688 677.078125 371.839844 C 676.269531 372 675.457031 372.082031 674.632812 372.082031 C 673.8125 372.082031 673 372 672.191406 371.839844 C 671.386719 371.679688 670.601562 371.441406 669.84375 371.128906 C 669.082031 370.8125 668.359375 370.429688 667.675781 369.972656 C 666.992188 369.515625 666.359375 368.996094 665.777344 368.417969 Z M 681.84375 229.957031 C 681.367188 229.484375 680.855469 229.0625 680.296875 228.691406 C 679.742188 228.320312 679.152344 228.003906 678.535156 227.75 C 677.917969 227.492188 677.28125 227.300781 676.621094 227.167969 C 675.964844 227.039062 675.304688 226.972656 674.632812 226.972656 C 673.964844 226.972656 673.300781 227.039062 672.644531 227.167969 C 671.988281 227.300781 671.351562 227.492188 670.734375 227.75 C 670.117188 228.003906 669.527344 228.320312 668.972656 228.691406 C 668.414062 229.0625 667.898438 229.484375 667.425781 229.957031 L 606.230469 291.15625 C 605.757812 291.628906 605.332031 292.144531 604.960938 292.699219 C 604.589844 293.257812 604.277344 293.84375 604.019531 294.460938 C 603.765625 295.082031 603.570312 295.71875 603.441406 296.375 C 603.3125 297.03125 603.246094 297.691406 603.246094 298.363281 C 603.246094 299.03125 603.3125 299.695312 603.441406 300.351562 C 603.570312 301.007812 603.765625 301.644531 604.019531 302.261719 C 604.277344 302.882812 604.589844 303.46875 604.960938 304.023438 C 605.332031 304.582031 605.757812 305.097656 606.230469 305.570312 L 667.425781 366.769531 C 667.898438 367.242188 668.414062 367.664062 668.972656 368.035156 C 669.527344 368.40625 670.117188 368.71875 670.734375 368.976562 C 671.351562 369.230469 671.988281 369.425781 672.644531 369.554688 C 673.300781 369.6875 673.964844 369.75 674.632812 369.75 C 675.304688 369.75 675.964844 369.6875 676.621094 369.554688 C 677.277344 369.425781 677.917969 369.230469 678.535156 368.976562 C 679.152344 368.71875 679.742188 368.40625 680.296875 368.035156 C 680.855469 367.664062 681.367188 367.242188 681.84375 366.769531 L 743.039062 305.570312 C 743.511719 305.097656 743.933594 304.582031 744.308594 304.023438 C 744.679688 303.46875 744.992188 302.882812 745.246094 302.261719 C 745.503906 301.644531 745.695312 301.007812 745.828125 300.351562 C 745.957031 299.695312 746.023438 299.03125 746.023438 298.363281 C 746.023438 297.691406 745.957031 297.03125 745.828125 296.375 C 745.695312 295.71875 745.503906 295.082031 745.246094 294.460938 C 744.992188 293.84375 744.679688 293.257812 744.308594 292.699219 C 743.933594 292.144531 743.511719 291.628906 743.039062 291.15625 Z M 681.84375 229.957031 " fill-opacity="1" fill-rule="nonzero"/></g></g></g><g clip-path="url(#1c240a532e)"><g clip-path="url(#8c37f98e97)"><g clip-path="url(#73d919e15c)"><path fill="#73c2a6" d="M 682.199219 410.40625 L 739.84375 468.050781 C 740.339844 468.546875 740.785156 469.085938 741.175781 469.671875 C 741.566406 470.253906 741.894531 470.871094 742.164062 471.519531 C 742.433594 472.167969 742.636719 472.839844 742.773438 473.527344 C 742.910156 474.21875 742.976562 474.914062 742.976562 475.617188 C 742.976562 476.316406 742.910156 477.015625 742.773438 477.703125 C 742.636719 478.390625 742.433594 479.0625 742.164062 479.710938 C 741.894531 480.359375 741.566406 480.976562 741.175781 481.558594 C 740.785156 482.144531 740.339844 482.683594 739.84375 483.179688 L 682.199219 540.824219 C 681.703125 541.320312 681.164062 541.765625 680.578125 542.15625 C 679.996094 542.546875 679.378906 542.875 678.730469 543.144531 C 678.082031 543.414062 677.410156 543.617188 676.722656 543.753906 C 676.03125 543.890625 675.335938 543.960938 674.632812 543.960938 C 673.933594 543.960938 673.234375 543.890625 672.546875 543.753906 C 671.859375 543.617188 671.1875 543.414062 670.539062 543.144531 C 669.890625 542.875 669.273438 542.546875 668.691406 542.15625 C 668.105469 541.765625 667.566406 541.320312 667.070312 540.824219 L 609.425781 483.179688 C 608.929688 482.683594 608.484375 482.144531 608.09375 481.558594 C 607.703125 480.976562 607.375 480.359375 607.105469 479.710938 C 606.835938 479.0625 606.632812 478.390625 606.496094 477.703125 C 606.359375 477.015625 606.289062 476.316406 606.289062 475.617188 C 606.289062 474.914062 606.359375 474.21875 606.496094 473.527344 C 606.632812 472.839844 606.835938 472.167969 607.105469 471.519531 C 607.375 470.871094 607.703125 470.253906 608.09375 469.671875 C 608.484375 469.085938 608.929688 468.546875 609.425781 468.050781 L 667.070312 410.40625 C 667.566406 409.910156 668.105469 409.464844 668.691406 409.074219 C 669.273438 408.683594 669.890625 408.355469 670.539062 408.085938 C 671.1875 407.816406 671.859375 407.613281 672.546875 407.476562 C 673.234375 407.339844 673.933594 407.273438 674.632812 407.273438 C 675.335938 407.273438 676.03125 407.339844 676.722656 407.476562 C 677.410156 407.613281 678.082031 407.816406 678.730469 408.085938 C 679.378906 408.355469 679.996094 408.683594 680.578125 409.074219 C 681.164062 409.464844 681.703125 409.910156 682.199219 410.40625 Z M 682.199219 410.40625 " fill-opacity="1" fill-rule="nonzero"/></g></g></g><g clip-path="url(#882dd5e981)"><g clip-path="url(#fb50b300bc)"><g clip-path="url(#6382fdba07)"><path fill="#73c2a6" d="M 666.292969 541.601562 L 608.648438 483.957031 C 608.101562 483.410156 607.613281 482.8125 607.183594 482.167969 C 606.753906 481.523438 606.390625 480.84375 606.09375 480.128906 C 605.796875 479.414062 605.574219 478.675781 605.425781 477.917969 C 605.273438 477.15625 605.199219 476.390625 605.199219 475.617188 C 605.199219 474.839844 605.273438 474.074219 605.425781 473.3125 C 605.574219 472.554688 605.796875 471.816406 606.09375 471.101562 C 606.390625 470.386719 606.753906 469.707031 607.183594 469.0625 C 607.613281 468.417969 608.101562 467.820312 608.648438 467.273438 L 666.292969 409.628906 C 666.839844 409.082031 667.4375 408.59375 668.082031 408.164062 C 668.726562 407.734375 669.40625 407.371094 670.121094 407.074219 C 670.835938 406.777344 671.574219 406.554688 672.332031 406.40625 C 673.09375 406.253906 673.859375 406.179688 674.632812 406.179688 C 675.410156 406.179688 676.175781 406.253906 676.9375 406.40625 C 677.695312 406.554688 678.433594 406.777344 679.148438 407.074219 C 679.863281 407.371094 680.542969 407.734375 681.1875 408.164062 C 681.832031 408.59375 682.429688 409.082031 682.976562 409.628906 L 740.621094 467.273438 C 741.167969 467.820312 741.65625 468.417969 742.085938 469.0625 C 742.515625 469.707031 742.878906 470.386719 743.175781 471.101562 C 743.472656 471.816406 743.695312 472.554688 743.84375 473.3125 C 743.996094 474.074219 744.070312 474.839844 744.070312 475.617188 C 744.070312 476.390625 743.996094 477.15625 743.84375 477.917969 C 743.695312 478.675781 743.472656 479.414062 743.175781 480.128906 C 742.878906 480.84375 742.515625 481.523438 742.085938 482.167969 C 741.65625 482.8125 741.167969 483.410156 740.621094 483.957031 L 682.976562 541.601562 C 682.429688 542.148438 681.832031 542.636719 681.1875 543.066406 C 680.542969 543.496094 679.863281 543.859375 679.148438 544.15625 C 678.433594 544.453125 677.695312 544.675781 676.9375 544.824219 C 676.175781 544.976562 675.410156 545.050781 674.632812 545.050781 C 673.859375 545.050781 673.09375 544.976562 672.332031 544.824219 C 671.574219 544.675781 670.835938 544.453125 670.121094 544.15625 C 669.40625 543.859375 668.726562 543.496094 668.082031 543.066406 C 667.4375 542.636719 666.839844 542.148438 666.292969 541.601562 Z M 681.425781 411.183594 C 680.976562 410.738281 680.492188 410.339844 679.96875 409.988281 C 679.445312 409.640625 678.890625 409.34375 678.308594 409.101562 C 677.726562 408.863281 677.125 408.679688 676.507812 408.558594 C 675.890625 408.433594 675.265625 408.371094 674.632812 408.371094 C 674.003906 408.371094 673.378906 408.433594 672.761719 408.558594 C 672.144531 408.679688 671.542969 408.863281 670.960938 409.101562 C 670.378906 409.34375 669.824219 409.640625 669.300781 409.988281 C 668.777344 410.339844 668.292969 410.738281 667.84375 411.183594 L 610.203125 468.824219 C 609.753906 469.273438 609.359375 469.757812 609.007812 470.28125 C 608.65625 470.804688 608.363281 471.359375 608.121094 471.941406 C 607.878906 472.523438 607.699219 473.125 607.574219 473.742188 C 607.453125 474.359375 607.390625 474.984375 607.390625 475.617188 C 607.390625 476.246094 607.453125 476.871094 607.574219 477.488281 C 607.699219 478.105469 607.878906 478.707031 608.121094 479.289062 C 608.363281 479.871094 608.65625 480.425781 609.007812 480.949219 C 609.359375 481.472656 609.753906 481.957031 610.203125 482.40625 L 667.84375 540.046875 C 668.292969 540.492188 668.777344 540.890625 669.300781 541.242188 C 669.824219 541.589844 670.378906 541.886719 670.960938 542.128906 C 671.542969 542.371094 672.144531 542.550781 672.761719 542.675781 C 673.378906 542.796875 674.003906 542.859375 674.632812 542.859375 C 675.265625 542.859375 675.890625 542.796875 676.507812 542.675781 C 677.125 542.550781 677.726562 542.371094 678.308594 542.128906 C 678.890625 541.886719 679.445312 541.589844 679.96875 541.242188 C 680.492188 540.890625 680.976562 540.492188 681.425781 540.046875 L 739.066406 482.40625 C 739.511719 481.957031 739.910156 481.472656 740.261719 480.949219 C 740.609375 480.425781 740.90625 479.871094 741.148438 479.289062 C 741.386719 478.707031 741.570312 478.105469 741.691406 477.488281 C 741.816406 476.871094 741.878906 476.246094 741.878906 475.617188 C 741.878906 474.984375 741.816406 474.359375 741.691406 473.742188 C 741.570312 473.125 741.386719 472.523438 741.148438 471.941406 C 740.90625 471.359375 740.609375 470.804688 740.261719 470.28125 C 739.910156 469.757812 739.511719 469.273438 739.066406 468.824219 Z M 681.425781 411.183594 " fill-opacity="1" fill-rule="nonzero"/></g></g></g><g mask="url(#23dcb2e230)"><g transform="matrix(1, 0, 0, 1, 647, 687)"><g clip-path="url(#cfdd8bada7)"><g clip-path="url(#74ac3c95f7)"><g clip-path="url(#470aba948b)"><g clip-path="url(#a8f18d6ae5)"><path fill="#cdcdcd" d="M 28.640625 3.96875 L 48.511719 23.835938 C 48.855469 24.183594 49.121094 24.582031 49.308594 25.035156 C 49.496094 25.484375 49.589844 25.957031 49.589844 26.445312 C 49.589844 26.933594 49.496094 27.40625 49.308594 27.855469 C 49.121094 28.308594 48.855469 28.707031 48.511719 29.054688 L 28.640625 48.921875 C 28.292969 49.269531 27.894531 49.535156 27.445312 49.722656 C 26.992188 49.910156 26.519531 50.003906 26.03125 50.003906 C 25.542969 50.003906 25.074219 49.910156 24.621094 49.722656 C 24.167969 49.535156 23.769531 49.269531 23.425781 48.921875 L 3.554688 29.054688 C 3.207031 28.707031 2.941406 28.308594 2.753906 27.855469 C 2.566406 27.40625 2.472656 26.933594 2.472656 26.445312 C 2.472656 25.957031 2.566406 25.484375 2.753906 25.035156 C 2.941406 24.582031 3.207031 24.183594 3.554688 23.835938 L 23.425781 3.96875 C 23.769531 3.621094 24.167969 3.355469 24.621094 3.167969 C 25.074219 2.980469 25.542969 2.886719 26.03125 2.886719 C 26.519531 2.886719 26.992188 2.980469 27.445312 3.167969 C 27.894531 3.355469 28.292969 3.621094 28.640625 3.96875 Z M 28.640625 3.96875 " fill-opacity="1" fill-rule="nonzero"/><path fill="#cdcdcd" d="M 23.15625 49.191406 L 3.285156 29.320312 C 3.097656 29.132812 2.929688 28.925781 2.78125 28.703125 C 2.632812 28.480469 2.507812 28.246094 2.40625 28 C 2.304688 27.753906 2.226562 27.5 2.175781 27.238281 C 2.121094 26.976562 2.097656 26.710938 2.097656 26.445312 C 2.097656 26.179688 2.121094 25.914062 2.175781 25.652344 C 2.226562 25.390625 2.304688 25.136719 2.40625 24.890625 C 2.507812 24.640625 2.632812 24.40625 2.78125 24.1875 C 2.929688 23.964844 3.097656 23.757812 3.285156 23.570312 L 23.15625 3.699219 C 23.34375 3.511719 23.550781 3.34375 23.773438 3.195312 C 23.996094 3.046875 24.230469 2.921875 24.476562 2.820312 C 24.722656 2.71875 24.976562 2.640625 25.238281 2.585938 C 25.5 2.535156 25.765625 2.511719 26.03125 2.511719 C 26.300781 2.511719 26.5625 2.535156 26.824219 2.585938 C 27.085938 2.640625 27.339844 2.71875 27.589844 2.820312 C 27.835938 2.921875 28.070312 3.046875 28.292969 3.195312 C 28.511719 3.34375 28.71875 3.511719 28.90625 3.699219 L 48.777344 23.570312 C 48.964844 23.757812 49.136719 23.964844 49.28125 24.1875 C 49.429688 24.40625 49.554688 24.640625 49.660156 24.890625 C 49.761719 25.136719 49.835938 25.390625 49.890625 25.652344 C 49.941406 25.914062 49.96875 26.179688 49.96875 26.445312 C 49.96875 26.710938 49.941406 26.976562 49.890625 27.238281 C 49.835938 27.5 49.761719 27.753906 49.660156 28 C 49.554688 28.246094 49.429688 28.480469 49.28125 28.703125 C 49.136719 28.925781 48.964844 29.132812 48.777344 29.320312 L 28.90625 49.191406 C 28.71875 49.378906 28.511719 49.546875 28.292969 49.695312 C 28.070312 49.84375 27.835938 49.96875 27.589844 50.070312 C 27.339844 50.171875 27.085938 50.25 26.824219 50.300781 C 26.5625 50.355469 26.300781 50.378906 26.03125 50.378906 C 25.765625 50.378906 25.5 50.355469 25.238281 50.300781 C 24.976562 50.25 24.722656 50.171875 24.476562 50.070312 C 24.230469 49.96875 23.996094 49.84375 23.773438 49.695312 C 23.550781 49.546875 23.34375 49.378906 23.15625 49.191406 Z M 28.371094 4.234375 C 28.0625 3.925781 27.703125 3.683594 27.296875 3.519531 C 26.894531 3.351562 26.472656 3.265625 26.03125 3.265625 C 25.59375 3.265625 25.171875 3.351562 24.765625 3.519531 C 24.359375 3.683594 24.003906 3.925781 23.691406 4.234375 L 3.820312 24.105469 C 3.511719 24.414062 3.273438 24.773438 3.105469 25.179688 C 2.9375 25.585938 2.851562 26.007812 2.851562 26.445312 C 2.851562 26.882812 2.9375 27.304688 3.105469 27.710938 C 3.273438 28.117188 3.511719 28.476562 3.820312 28.785156 L 23.691406 48.65625 C 24.003906 48.964844 24.359375 49.203125 24.765625 49.371094 C 25.171875 49.539062 25.59375 49.625 26.03125 49.625 C 26.472656 49.625 26.894531 49.539062 27.296875 49.371094 C 27.703125 49.203125 28.0625 48.964844 28.371094 48.65625 L 48.242188 28.785156 C 48.550781 28.476562 48.792969 28.117188 48.960938 27.710938 C 49.128906 27.304688 49.210938 26.882812 49.210938 26.445312 C 49.210938 26.007812 49.128906 25.585938 48.960938 25.179688 C 48.792969 24.773438 48.550781 24.414062 48.242188 24.105469 Z M 28.371094 4.234375 " fill-opacity="1" fill-rule="nonzero"/></g></g></g></g></g></g><g clip-path="url(#5161921f4b)"><g clip-path="url(#a3b72dad49)"><g clip-path="url(#8b51dc48ac)"><path fill="#e86a8a" d="M 681.15625 582.828125 L 737.21875 638.890625 C 737.703125 639.371094 738.132812 639.898438 738.511719 640.464844 C 738.890625 641.035156 739.210938 641.632812 739.472656 642.265625 C 739.734375 642.898438 739.933594 643.546875 740.066406 644.21875 C 740.199219 644.886719 740.265625 645.566406 740.265625 646.246094 C 740.265625 646.929688 740.199219 647.609375 740.066406 648.277344 C 739.933594 648.949219 739.734375 649.597656 739.472656 650.230469 C 739.210938 650.863281 738.890625 651.460938 738.511719 652.03125 C 738.132812 652.597656 737.703125 653.125 737.21875 653.605469 L 681.15625 709.667969 C 680.671875 710.152344 680.148438 710.585938 679.578125 710.964844 C 679.011719 711.34375 678.410156 711.664062 677.78125 711.925781 C 677.148438 712.1875 676.496094 712.382812 675.828125 712.515625 C 675.15625 712.652344 674.480469 712.71875 673.796875 712.71875 C 673.113281 712.71875 672.4375 712.652344 671.765625 712.515625 C 671.097656 712.382812 670.445312 712.1875 669.816406 711.925781 C 669.183594 711.664062 668.582031 711.34375 668.015625 710.964844 C 667.445312 710.585938 666.921875 710.152344 666.4375 709.667969 L 610.375 653.605469 C 609.890625 653.125 609.460938 652.597656 609.082031 652.03125 C 608.703125 651.460938 608.382812 650.863281 608.121094 650.230469 C 607.859375 649.597656 607.660156 648.949219 607.527344 648.277344 C 607.394531 647.609375 607.328125 646.929688 607.328125 646.246094 C 607.328125 645.566406 607.394531 644.886719 607.527344 644.21875 C 607.660156 643.546875 607.859375 642.898438 608.121094 642.265625 C 608.382812 641.632812 608.703125 641.035156 609.082031 640.464844 C 609.460938 639.898438 609.890625 639.371094 610.375 638.890625 L 666.4375 582.828125 C 666.921875 582.34375 667.445312 581.910156 668.015625 581.53125 C 668.582031 581.152344 669.183594 580.832031 669.816406 580.570312 C 670.445312 580.308594 671.097656 580.113281 671.765625 579.976562 C 672.4375 579.84375 673.113281 579.777344 673.796875 579.777344 C 674.480469 579.777344 675.15625 579.84375 675.828125 579.976562 C 676.496094 580.113281 677.148438 580.308594 677.78125 580.570312 C 678.410156 580.832031 679.011719 581.152344 679.578125 581.53125 C 680.148438 581.910156 680.671875 582.34375 681.15625 582.828125 Z M 681.15625 582.828125 " fill-opacity="1" fill-rule="nonzero"/></g></g></g><g clip-path="url(#384b5af056)"><g clip-path="url(#6224ce0a9d)"><g clip-path="url(#29c99b97e0)"><path fill="#e86a8a" d="M 665.683594 710.425781 L 609.621094 654.363281 C 609.089844 653.828125 608.613281 653.25 608.195312 652.621094 C 607.777344 651.996094 607.425781 651.335938 607.136719 650.636719 C 606.847656 649.941406 606.632812 649.226562 606.484375 648.484375 C 606.335938 647.746094 606.265625 647 606.265625 646.246094 C 606.265625 645.496094 606.335938 644.75 606.484375 644.011719 C 606.632812 643.269531 606.847656 642.554688 607.136719 641.859375 C 607.425781 641.160156 607.777344 640.5 608.195312 639.875 C 608.613281 639.246094 609.089844 638.667969 609.621094 638.132812 L 665.683594 582.070312 C 666.214844 581.539062 666.796875 581.0625 667.421875 580.644531 C 668.050781 580.226562 668.710938 579.875 669.40625 579.585938 C 670.101562 579.300781 670.820312 579.082031 671.558594 578.933594 C 672.296875 578.789062 673.042969 578.714844 673.796875 578.714844 C 674.550781 578.714844 675.296875 578.789062 676.035156 578.933594 C 676.773438 579.082031 677.492188 579.300781 678.1875 579.585938 C 678.882812 579.875 679.542969 580.226562 680.171875 580.644531 C 680.796875 581.0625 681.378906 581.539062 681.910156 582.070312 L 737.972656 638.132812 C 738.503906 638.667969 738.980469 639.246094 739.398438 639.875 C 739.816406 640.5 740.167969 641.160156 740.457031 641.859375 C 740.746094 642.554688 740.960938 643.269531 741.109375 644.011719 C 741.257812 644.75 741.328125 645.496094 741.328125 646.246094 C 741.328125 647 741.257812 647.746094 741.109375 648.484375 C 740.960938 649.226562 740.746094 649.941406 740.457031 650.636719 C 740.167969 651.335938 739.816406 651.996094 739.398438 652.621094 C 738.980469 653.25 738.503906 653.828125 737.972656 654.363281 L 681.910156 710.425781 C 681.378906 710.957031 680.796875 711.433594 680.171875 711.851562 C 679.542969 712.269531 678.882812 712.621094 678.1875 712.910156 C 677.492188 713.195312 676.773438 713.414062 676.035156 713.558594 C 675.296875 713.707031 674.550781 713.78125 673.796875 713.78125 C 673.042969 713.78125 672.296875 713.707031 671.558594 713.558594 C 670.820312 713.414062 670.101562 713.195312 669.40625 712.910156 C 668.710938 712.621094 668.050781 712.269531 667.421875 711.851562 C 666.796875 711.433594 666.214844 710.957031 665.683594 710.425781 Z M 680.398438 583.582031 C 679.964844 583.148438 679.496094 582.761719 678.984375 582.421875 C 678.476562 582.082031 677.9375 581.792969 677.371094 581.558594 C 676.804688 581.324219 676.21875 581.148438 675.617188 581.027344 C 675.015625 580.910156 674.410156 580.847656 673.796875 580.847656 C 673.183594 580.847656 672.578125 580.910156 671.976562 581.027344 C 671.375 581.148438 670.789062 581.324219 670.222656 581.558594 C 669.65625 581.792969 669.117188 582.082031 668.609375 582.421875 C 668.097656 582.761719 667.628906 583.148438 667.195312 583.582031 L 611.128906 639.644531 C 610.699219 640.078125 610.3125 640.550781 609.96875 641.058594 C 609.628906 641.570312 609.34375 642.109375 609.109375 642.675781 C 608.875 643.242188 608.695312 643.824219 608.578125 644.425781 C 608.457031 645.027344 608.398438 645.636719 608.398438 646.246094 C 608.398438 646.859375 608.457031 647.46875 608.578125 648.070312 C 608.695312 648.671875 608.875 649.253906 609.109375 649.820312 C 609.34375 650.386719 609.628906 650.925781 609.96875 651.4375 C 610.3125 651.945312 610.699219 652.417969 611.128906 652.851562 L 667.195312 708.914062 C 667.628906 709.347656 668.097656 709.734375 668.609375 710.074219 C 669.117188 710.414062 669.65625 710.703125 670.222656 710.9375 C 670.789062 711.171875 671.375 711.347656 671.976562 711.46875 C 672.578125 711.585938 673.183594 711.648438 673.796875 711.648438 C 674.410156 711.648438 675.015625 711.585938 675.617188 711.46875 C 676.21875 711.347656 676.804688 711.171875 677.371094 710.9375 C 677.9375 710.703125 678.476562 710.414062 678.984375 710.074219 C 679.496094 709.734375 679.964844 709.347656 680.398438 708.914062 L 736.464844 652.851562 C 736.894531 652.417969 737.28125 651.945312 737.625 651.4375 C 737.964844 650.925781 738.25 650.386719 738.484375 649.820312 C 738.71875 649.253906 738.898438 648.671875 739.015625 648.070312 C 739.136719 647.46875 739.195312 646.859375 739.195312 646.246094 C 739.195312 645.636719 739.136719 645.027344 739.015625 644.425781 C 738.898438 643.824219 738.71875 643.242188 738.484375 642.675781 C 738.25 642.109375 737.964844 641.570312 737.625 641.058594 C 737.28125 640.550781 736.894531 640.078125 736.464844 639.644531 Z M 680.398438 583.582031 " fill-opacity="1" fill-rule="nonzero"/></g></g></g><g clip-path="url(#526b9f185c)"><g clip-path="url(#e9d641e235)"><g clip-path="url(#461a9bc254)"><path fill="#0070c0" d="M 678.347656 67.886719 L 736.507812 126.042969 C 737.007812 126.542969 737.457031 127.089844 737.847656 127.679688 C 738.242188 128.269531 738.574219 128.890625 738.847656 129.546875 C 739.117188 130.199219 739.324219 130.875 739.460938 131.570312 C 739.597656 132.265625 739.667969 132.96875 739.667969 133.675781 C 739.667969 134.386719 739.597656 135.085938 739.460938 135.78125 C 739.324219 136.476562 739.117188 137.152344 738.847656 137.808594 C 738.574219 138.460938 738.242188 139.085938 737.847656 139.675781 C 737.457031 140.261719 737.007812 140.808594 736.507812 141.308594 L 678.347656 199.46875 C 677.847656 199.96875 677.300781 200.417969 676.710938 200.808594 C 676.125 201.203125 675.5 201.535156 674.847656 201.808594 C 674.191406 202.078125 673.515625 202.285156 672.820312 202.421875 C 672.125 202.5625 671.421875 202.628906 670.714844 202.628906 C 670.007812 202.628906 669.304688 202.5625 668.609375 202.421875 C 667.914062 202.285156 667.238281 202.078125 666.582031 201.808594 C 665.929688 201.535156 665.308594 201.203125 664.71875 200.808594 C 664.128906 200.417969 663.582031 199.96875 663.082031 199.46875 L 604.921875 141.308594 C 604.421875 140.808594 603.976562 140.261719 603.582031 139.675781 C 603.1875 139.085938 602.855469 138.460938 602.582031 137.808594 C 602.3125 137.152344 602.105469 136.476562 601.96875 135.78125 C 601.832031 135.085938 601.761719 134.386719 601.761719 133.675781 C 601.761719 132.96875 601.832031 132.265625 601.96875 131.570312 C 602.105469 130.875 602.3125 130.199219 602.582031 129.546875 C 602.855469 128.890625 603.1875 128.269531 603.582031 127.679688 C 603.976562 127.089844 604.421875 126.542969 604.921875 126.042969 L 663.082031 67.886719 C 663.582031 67.382812 664.128906 66.9375 664.71875 66.542969 C 665.308594 66.148438 665.929688 65.816406 666.582031 65.542969 C 667.238281 65.273438 667.914062 65.070312 668.609375 64.929688 C 669.304688 64.792969 670.007812 64.722656 670.714844 64.722656 C 671.421875 64.722656 672.125 64.792969 672.820312 64.929688 C 673.515625 65.070312 674.191406 65.273438 674.847656 65.542969 C 675.5 65.816406 676.125 66.148438 676.710938 66.542969 C 677.300781 66.9375 677.847656 67.382812 678.347656 67.886719 Z M 678.347656 67.886719 " fill-opacity="1" fill-rule="nonzero"/></g></g></g><g clip-path="url(#5e87c3841f)"><g clip-path="url(#832237bd8c)"><g clip-path="url(#d2b4e3aa8c)"><path fill="#0d5192" d="M 662.296875 200.25 L 604.140625 142.09375 C 603.589844 141.539062 603.09375 140.9375 602.660156 140.289062 C 602.226562 139.640625 601.863281 138.953125 601.5625 138.230469 C 601.265625 137.507812 601.039062 136.765625 600.886719 136 C 600.734375 135.230469 600.660156 134.457031 600.660156 133.675781 C 600.660156 132.894531 600.734375 132.121094 600.886719 131.355469 C 601.039062 130.589844 601.265625 129.84375 601.5625 129.121094 C 601.863281 128.398438 602.226562 127.714844 602.660156 127.0625 C 603.09375 126.414062 603.589844 125.8125 604.140625 125.257812 L 662.296875 67.101562 C 662.851562 66.550781 663.453125 66.058594 664.101562 65.625 C 664.753906 65.191406 665.4375 64.824219 666.160156 64.523438 C 666.882812 64.226562 667.628906 64 668.394531 63.847656 C 669.160156 63.695312 669.933594 63.621094 670.714844 63.621094 C 671.496094 63.621094 672.269531 63.695312 673.035156 63.847656 C 673.804688 64 674.546875 64.226562 675.269531 64.523438 C 675.992188 64.824219 676.675781 65.191406 677.328125 65.625 C 677.976562 66.058594 678.578125 66.550781 679.132812 67.101562 L 737.289062 125.257812 C 737.84375 125.8125 738.335938 126.414062 738.769531 127.0625 C 739.203125 127.714844 739.566406 128.398438 739.867188 129.121094 C 740.164062 129.84375 740.390625 130.589844 740.542969 131.355469 C 740.695312 132.121094 740.769531 132.894531 740.769531 133.675781 C 740.769531 134.457031 740.695312 135.230469 740.542969 136 C 740.390625 136.765625 740.164062 137.507812 739.867188 138.230469 C 739.566406 138.953125 739.203125 139.640625 738.769531 140.289062 C 738.335938 140.9375 737.84375 141.539062 737.289062 142.09375 L 679.132812 200.25 C 678.578125 200.804688 677.976562 201.296875 677.328125 201.730469 C 676.675781 202.164062 675.992188 202.53125 675.269531 202.828125 C 674.546875 203.125 673.804688 203.351562 673.035156 203.503906 C 672.269531 203.65625 671.496094 203.734375 670.714844 203.734375 C 669.933594 203.734375 669.160156 203.65625 668.394531 203.503906 C 667.628906 203.351562 666.882812 203.125 666.160156 202.828125 C 665.4375 202.53125 664.753906 202.164062 664.101562 201.730469 C 663.453125 201.296875 662.851562 200.804688 662.296875 200.25 Z M 677.566406 68.667969 C 677.113281 68.21875 676.625 67.816406 676.097656 67.464844 C 675.566406 67.113281 675.007812 66.8125 674.421875 66.570312 C 673.835938 66.328125 673.226562 66.144531 672.605469 66.019531 C 671.980469 65.894531 671.351562 65.832031 670.714844 65.832031 C 670.078125 65.832031 669.449219 65.894531 668.824219 66.019531 C 668.203125 66.144531 667.597656 66.328125 667.007812 66.570312 C 666.421875 66.8125 665.863281 67.113281 665.332031 67.464844 C 664.804688 67.816406 664.316406 68.21875 663.863281 68.667969 L 605.707031 126.828125 C 605.257812 127.277344 604.855469 127.765625 604.503906 128.296875 C 604.148438 128.824219 603.851562 129.382812 603.609375 129.96875 C 603.367188 130.558594 603.183594 131.164062 603.058594 131.785156 C 602.933594 132.410156 602.871094 133.039062 602.871094 133.675781 C 602.871094 134.3125 602.933594 134.941406 603.058594 135.566406 C 603.183594 136.191406 603.367188 136.796875 603.609375 137.382812 C 603.851562 137.972656 604.148438 138.527344 604.503906 139.058594 C 604.855469 139.585938 605.257812 140.078125 605.707031 140.527344 L 663.863281 198.683594 C 664.316406 199.132812 664.804688 199.535156 665.332031 199.886719 C 665.863281 200.242188 666.421875 200.539062 667.007812 200.78125 C 667.597656 201.027344 668.203125 201.210938 668.824219 201.332031 C 669.449219 201.457031 670.078125 201.519531 670.714844 201.519531 C 671.351562 201.519531 671.980469 201.457031 672.605469 201.332031 C 673.226562 201.210938 673.835938 201.027344 674.421875 200.78125 C 675.007812 200.539062 675.566406 200.242188 676.097656 199.886719 C 676.625 199.535156 677.113281 199.132812 677.566406 198.683594 L 735.722656 140.527344 C 736.171875 140.078125 736.574219 139.585938 736.925781 139.058594 C 737.28125 138.527344 737.578125 137.972656 737.820312 137.382812 C 738.0625 136.796875 738.246094 136.191406 738.371094 135.566406 C 738.496094 134.941406 738.558594 134.3125 738.558594 133.675781 C 738.558594 133.039062 738.496094 132.410156 738.371094 131.785156 C 738.246094 131.164062 738.0625 130.558594 737.820312 129.96875 C 737.578125 129.382812 737.28125 128.824219 736.925781 128.296875 C 736.574219 127.765625 736.171875 127.277344 735.722656 126.828125 Z M 677.566406 68.667969 " fill-opacity="1" fill-rule="nonzero"/></g></g></g><g clip-path="url(#84f5ffbd11)"><path stroke-linecap="round" transform="matrix(0.160605, 0, 0, 0.160605, 646.932286, 109.893895)" fill="none" stroke-linejoin="round" d="M 288.784341 147.079649 C 288.784341 151.725169 288.565442 156.346366 288.103322 160.967563 C 287.641202 165.588761 286.984506 170.185636 286.060266 174.733867 C 285.160349 179.282099 284.041533 183.781686 282.679496 188.208306 C 281.341781 192.659249 279.785167 197.012904 278.009654 201.317914 C 276.234141 205.598602 274.23973 209.782002 272.050742 213.892435 C 269.861753 217.978547 267.478188 221.943048 264.900047 225.81026 C 262.321905 229.677473 259.573508 233.398753 256.630535 236.9741 C 253.687562 240.57377 250.574334 244.003185 247.290852 247.286667 C 244.00737 250.57015 240.577955 253.683377 236.978285 256.626351 C 233.402938 259.569324 229.657335 262.31772 225.814445 264.895862 C 221.947232 267.474003 217.982731 269.857568 213.872298 272.046557 C 209.786186 274.235545 205.602787 276.229957 201.322099 278.005469 C 197.017088 279.780982 192.663434 281.337596 188.212491 282.699633 C 183.78587 284.037348 179.286283 285.156164 174.738052 286.056082 C 170.165499 286.980321 165.592946 287.66134 160.971748 288.099137 C 156.350551 288.561257 151.729353 288.780156 147.083834 288.780156 C 142.438314 288.780156 137.817117 288.561257 133.195919 288.099137 C 128.574722 287.66134 123.977847 286.980321 119.429615 286.056082 C 114.881384 285.156164 110.381797 284.037348 105.955177 282.699633 C 101.504234 281.337596 97.126257 279.780982 92.845569 278.005469 C 88.564881 276.229957 84.381481 274.235545 80.271048 272.046557 C 76.184936 269.857568 72.220435 267.474003 68.353223 264.895862 C 64.48601 262.31772 60.76473 259.569324 57.189382 256.626351 C 53.589713 253.683377 50.160298 250.57015 46.876816 247.286667 C 43.593333 244.003185 40.480105 240.57377 37.537132 236.9741 C 34.594159 233.398753 31.821441 229.677473 29.243299 225.81026 C 26.665157 221.943048 24.281592 217.978547 22.092604 213.892435 C 19.903616 209.782002 17.933526 205.598602 16.158014 201.317914 C 14.382501 197.012904 12.825887 192.659249 11.46385 188.208306 C 10.126135 183.781686 9.007319 179.282099 8.083079 174.733867 C 7.183162 170.185636 6.502143 165.588761 6.064346 160.967563 C 5.602226 156.346366 5.359005 151.725169 5.359005 147.079649 C 5.359005 142.43413 5.602226 137.812932 6.064346 133.191735 C 6.502143 128.570537 7.183162 123.973662 8.083079 119.425431 C 9.007319 114.877199 10.126135 110.377613 11.46385 105.950992 C 12.825887 101.500049 14.382501 97.146395 16.158014 92.841384 C 17.933526 88.560696 19.903616 84.377296 22.092604 80.266863 C 24.281592 76.180751 26.665157 72.21625 29.243299 68.349038 C 31.821441 64.481825 34.594159 60.760545 37.537132 57.185198 C 40.480105 53.585528 43.593333 50.156113 46.876816 46.872631 C 50.160298 43.589148 53.589713 40.475921 57.189382 37.532948 C 60.76473 34.589974 64.48601 31.841578 68.353223 29.263436 C 72.220435 26.685295 76.184936 24.30173 80.271048 22.112741 C 84.381481 19.923753 88.564881 17.929342 92.845569 16.153829 C 97.126257 14.378316 101.504234 12.821702 105.955177 11.483987 C 110.381797 10.12195 114.881384 9.003134 119.429615 8.103216 C 123.977847 7.178977 128.574722 6.497958 133.195919 6.060161 C 137.817117 5.598041 142.438314 5.379142 147.083834 5.379142 C 151.729353 5.379142 156.350551 5.598041 160.971748 6.060161 C 165.592946 6.497958 170.165499 7.178977 174.738052 8.103216 C 179.286283 9.003134 183.78587 10.12195 188.212491 11.483987 C 192.663434 12.821702 197.017088 14.378316 201.322099 16.153829 C 205.602787 17.929342 209.786186 19.923753 213.872298 22.112741 C 217.982731 24.30173 221.947232 26.685295 225.814445 29.263436 C 229.657335 31.841578 233.402938 34.589974 236.978285 37.532948 C 240.577955 40.475921 244.00737 43.589148 247.290852 46.872631 C 250.574334 50.156113 253.687562 53.585528 256.630535 57.185198 C 259.573508 60.760545 262.321905 64.481825 264.900047 68.349038 C 267.478188 72.21625 269.861753 76.180751 272.050742 80.266863 C 274.23973 84.377296 276.234141 88.560696 278.009654 92.841384 C 279.785167 97.146395 281.341781 101.500049 282.679496 105.950992 C 284.041533 110.377613 285.160349 114.877199 286.060266 119.425431 C 286.984506 123.973662 287.641202 128.570537 288.103322 133.191735 C 288.565442 137.812932 288.784341 142.43413 288.784341 147.079649 Z M 288.784341 147.079649 " stroke="#000000" stroke-width="10.742" stroke-opacity="1" stroke-miterlimit="10"/></g><g clip-path="url(#3fbd37a807)"><path stroke-linecap="round" transform="matrix(0.160605, 0, 0, 0.160605, 646.932286, 109.893895)" fill="none" stroke-linejoin="round" d="M 147.083834 5.379142 L 147.083834 147.079649 L 58.381165 257.599234 " stroke="#000000" stroke-width="10.742" stroke-opacity="1" stroke-miterlimit="10"/></g><g clip-path="url(#5cccafcb08)"><path stroke-linecap="round" transform="matrix(0.160605, 0, 0, 0.160605, 646.932286, 109.893895)" fill="none" stroke-linejoin="round" d="M 147.083834 288.780156 L 147.083834 147.079649 L 288.784341 147.079649 " stroke="#000000" stroke-width="10.742" stroke-opacity="1" stroke-miterlimit="10"/></g><path fill="#000000" d="M 643.617188 476.832031 L 706.425781 476.832031 C 707.046875 476.832031 707.550781 476.324219 707.550781 475.699219 C 707.550781 475.074219 707.046875 474.566406 706.425781 474.566406 L 643.617188 474.566406 C 642.996094 474.566406 642.492188 475.074219 642.492188 475.699219 C 642.492188 476.324219 642.996094 476.832031 643.617188 476.832031 Z M 643.617188 476.832031 " fill-opacity="1" fill-rule="evenodd"/><path fill="#000000" d="M 701.433594 473.644531 C 701.433594 473.644531 703.207031 474.863281 704.492188 475.746094 C 703.332031 476.621094 701.792969 477.78125 701.792969 477.78125 C 701.296875 478.160156 701.195312 478.871094 701.570312 479.371094 C 701.941406 479.871094 702.648438 479.972656 703.144531 479.597656 L 707.101562 476.605469 C 707.390625 476.386719 707.558594 476.039062 707.550781 475.675781 C 707.542969 475.308594 707.359375 474.96875 707.058594 474.761719 L 702.699219 471.769531 C 702.183594 471.417969 701.484375 471.554688 701.136719 472.070312 C 700.785156 472.589844 700.917969 473.292969 701.433594 473.644531 Z M 701.433594 473.644531 " fill-opacity="1" fill-rule="evenodd"/><path fill="#000000" d="M 646.238281 471.769531 L 641.878906 474.761719 C 641.578125 474.96875 641.394531 475.308594 641.386719 475.675781 C 641.378906 476.039062 641.542969 476.386719 641.835938 476.605469 L 645.792969 479.597656 C 646.289062 479.972656 646.996094 479.871094 647.367188 479.371094 C 647.738281 478.871094 647.640625 478.160156 647.140625 477.78125 C 647.140625 477.78125 645.605469 476.621094 644.445312 475.746094 C 644.445312 475.746094 647.503906 473.644531 647.503906 473.644531 C 648.019531 473.292969 648.152344 472.589844 647.800781 472.070312 C 647.453125 471.554688 646.75 471.417969 646.238281 471.769531 Z M 646.238281 471.769531 " fill-opacity="1" fill-rule="evenodd"/><path fill="#000000" d="M 707.375 471.410156 L 707.445312 480.554688 C 707.453125 481.179688 707.960938 481.683594 708.582031 481.675781 C 709.203125 481.671875 709.703125 481.160156 709.699219 480.535156 L 709.625 471.394531 C 709.621094 470.765625 709.113281 470.261719 708.492188 470.269531 C 707.871094 470.273438 707.371094 470.785156 707.375 471.410156 Z M 707.375 471.410156 " fill-opacity="1" fill-rule="evenodd"/><path fill="#000000" d="M 639.3125 471.394531 L 639.238281 480.535156 C 639.234375 481.160156 639.734375 481.671875 640.355469 481.675781 C 640.976562 481.683594 641.484375 481.179688 641.488281 480.554688 L 641.5625 471.410156 C 641.566406 470.785156 641.066406 470.273438 640.445312 470.269531 C 639.824219 470.261719 639.316406 470.765625 639.3125 471.394531 Z M 639.3125 471.394531 " fill-opacity="1" fill-rule="evenodd"/><path fill="#000000" d="M 694.28125 321.414062 L 679.617188 306.816406 C 681.515625 304.171875 682.636719 300.9375 682.636719 297.449219 C 682.636719 288.539062 675.359375 281.292969 666.414062 281.292969 C 657.46875 281.292969 650.191406 288.539062 650.191406 297.449219 C 650.191406 306.355469 657.46875 313.601562 666.414062 313.601562 C 669.917969 313.601562 673.164062 312.484375 675.820312 310.59375 L 690.484375 325.195312 C 691.007812 325.714844 691.695312 325.976562 692.382812 325.976562 C 693.066406 325.976562 693.753906 325.714844 694.28125 325.195312 C 695.328125 324.148438 695.328125 322.457031 694.28125 321.414062 Z M 651.625 297.449219 C 651.625 289.3125 658.246094 282.71875 666.414062 282.71875 C 674.582031 282.71875 681.203125 289.3125 681.203125 297.449219 C 681.203125 305.582031 674.582031 312.175781 666.414062 312.175781 C 658.246094 312.175781 651.625 305.582031 651.625 297.449219 Z M 651.625 297.449219 " fill-opacity="1" fill-rule="nonzero"/><path fill="#000000" d="M 670.140625 312.488281 C 670.285156 313.371094 671.082031 314.007812 671.992188 313.9375 C 672.953125 313.863281 673.671875 313.027344 673.597656 312.066406 L 673.53125 311.222656 C 672.464844 311.769531 671.332031 312.199219 670.140625 312.488281 Z M 670.140625 312.488281 " fill-opacity="1" fill-rule="nonzero"/><path fill="#000000" d="M 671.78125 280.066406 C 670.5625 280.105469 669.597656 281.078125 669.554688 282.273438 C 671.179688 282.605469 672.710938 283.191406 674.105469 283.984375 L 674.15625 282.429688 C 674.15625 282.386719 674.160156 282.332031 674.15625 282.285156 C 674.117188 281.019531 673.054688 280.027344 671.78125 280.066406 Z M 671.78125 280.066406 " fill-opacity="1" fill-rule="nonzero"/><path fill="#000000" d="M 671.070312 303.585938 C 672.285156 303.625 673.300781 302.671875 673.339844 301.460938 L 673.828125 286.101562 C 672.214844 285.054688 670.371094 284.339844 668.386719 284.050781 L 668.9375 301.460938 C 668.976562 302.605469 669.902344 303.546875 671.070312 303.585938 Z M 671.070312 303.585938 " fill-opacity="1" fill-rule="nonzero"/><path fill="#000000" d="M 671.3125 307.039062 C 670.097656 306.945312 669.035156 307.847656 668.9375 309.058594 L 668.804688 310.773438 C 670.4375 310.488281 671.96875 309.910156 673.34375 309.097656 L 673.339844 309.0625 C 673.257812 308 672.410156 307.125 671.3125 307.039062 Z M 671.3125 307.039062 " fill-opacity="1" fill-rule="nonzero"/><path fill="#000000" d="M 660.070312 285.445312 C 658.871094 286.078125 657.777344 286.878906 656.824219 287.820312 L 653.238281 294 C 652.949219 295.101562 652.796875 296.257812 652.796875 297.449219 C 652.796875 297.625 652.800781 297.796875 652.808594 297.972656 Z M 660.070312 285.445312 " fill-opacity="1" fill-rule="nonzero"/><g clip-path="url(#04850c9415)"><path fill="#000000" d="M 649.800781 316.820312 C 648.589844 316.820312 647.460938 316.171875 646.855469 315.125 C 646.25 314.082031 646.25 312.785156 646.855469 311.742188 L 651.902344 303.035156 C 651.671875 302.441406 651.476562 301.828125 651.316406 301.199219 L 645.617188 311.027344 C 644.757812 312.511719 644.757812 314.355469 645.617188 315.839844 C 646.476562 317.324219 648.082031 318.246094 649.800781 318.246094 L 681.984375 318.246094 L 680.554688 316.820312 Z M 649.800781 316.820312 " fill-opacity="1" fill-rule="nonzero"/></g><g clip-path="url(#770cdd2f2c)"><path fill="#000000" d="M 697.960938 310.8125 L 676.035156 273 C 675.175781 271.515625 673.570312 270.59375 671.851562 270.59375 C 670.128906 270.59375 668.527344 271.515625 667.667969 273 L 662.125 282.558594 C 662.742188 282.378906 663.375 282.238281 664.019531 282.140625 L 668.90625 273.710938 C 669.511719 272.667969 670.640625 272.019531 671.851562 272.019531 C 673.0625 272.019531 674.1875 272.667969 674.792969 273.710938 L 696.730469 311.542969 L 696.75 311.578125 C 697.117188 312.128906 697.308594 312.769531 697.308594 313.433594 C 697.308594 315.300781 695.785156 316.820312 693.910156 316.820312 L 691.183594 316.820312 L 692.613281 318.246094 L 693.910156 318.246094 C 696.574219 318.246094 698.738281 316.085938 698.738281 313.433594 C 698.738281 312.5 698.46875 311.59375 697.960938 310.8125 Z M 697.960938 310.8125 " fill-opacity="1" fill-rule="nonzero"/></g><path fill="#000000" d="M 670.820312 661.035156 C 666.464844 661.035156 662.109375 659.398438 658.792969 656.101562 C 652.164062 649.503906 652.164062 638.742188 658.792969 632.167969 C 665.421875 625.597656 676.238281 625.597656 682.867188 632.167969 C 689.496094 638.765625 689.496094 649.527344 682.867188 656.101562 C 679.550781 659.398438 675.199219 661.035156 670.820312 661.035156 Z M 659.617188 632.988281 C 653.472656 639.152344 653.472656 649.167969 659.617188 655.304688 C 665.785156 661.421875 675.851562 661.421875 682.042969 655.304688 C 688.164062 649.167969 688.164062 639.152344 682.042969 632.988281 C 675.851562 626.847656 665.785156 626.847656 659.617188 632.988281 Z M 659.617188 632.988281 " fill-opacity="1" fill-rule="evenodd"/><path fill="#000000" d="M 670.820312 657.570312 C 667.382812 657.570312 663.921875 656.269531 661.308594 653.644531 C 656.058594 648.394531 656.058594 639.875 661.308594 634.625 C 666.558594 629.425781 675.125 629.425781 680.398438 634.625 C 685.625 639.875 685.625 648.394531 680.398438 653.644531 C 677.738281 656.269531 674.277344 657.570312 670.820312 657.570312 Z M 662.109375 635.46875 C 657.320312 640.234375 657.320312 648.035156 662.109375 652.800781 C 666.898438 657.570312 674.714844 657.570312 679.527344 652.800781 C 684.320312 648.035156 684.320312 640.234375 679.527344 635.46875 C 674.761719 630.699219 666.949219 630.699219 662.109375 635.46875 Z M 662.109375 635.46875 " fill-opacity="1" fill-rule="evenodd"/><g clip-path="url(#7ac08df46e)"><path fill="#000000" d="M 691.457031 668.285156 C 690.558594 668.285156 689.714844 667.921875 689.011719 667.222656 L 679.746094 657.980469 C 679.527344 657.738281 679.527344 657.378906 679.746094 657.136719 C 679.988281 656.894531 680.351562 656.894531 680.59375 657.136719 L 689.859375 666.359375 C 690.65625 667.152344 691.457031 667.152344 692.035156 666.984375 C 692.90625 666.765625 693.632812 666.019531 693.875 665.152344 C 694.019531 664.625 694.042969 663.78125 693.199219 662.988281 L 683.957031 653.765625 C 683.714844 653.523438 683.714844 653.164062 683.957031 652.921875 C 684.171875 652.707031 684.558594 652.707031 684.777344 652.921875 L 694.019531 662.242188 C 695.664062 663.878906 695.230469 665.949219 693.972656 667.222656 C 693.34375 667.851562 692.496094 668.257812 691.671875 668.332031 C 691.601562 668.285156 691.527344 668.285156 691.457031 668.285156 Z M 691.457031 668.285156 " fill-opacity="1" fill-rule="evenodd"/></g><path fill="#000000" d="M 664.261719 648.492188 C 663.921875 648.492188 663.65625 648.226562 663.65625 647.890625 L 663.65625 642.136719 C 663.65625 641.824219 663.921875 641.558594 664.261719 641.558594 C 664.578125 641.558594 664.867188 641.824219 664.867188 642.136719 L 664.867188 647.914062 C 664.820312 648.226562 664.550781 648.492188 664.261719 648.492188 Z M 664.261719 648.492188 " fill-opacity="1" fill-rule="evenodd"/><path fill="#000000" d="M 668.640625 648.492188 C 668.300781 648.492188 668.035156 648.226562 668.035156 647.890625 L 668.035156 639.152344 C 668.035156 638.8125 668.300781 638.550781 668.640625 638.550781 C 668.980469 638.550781 669.246094 638.8125 669.246094 639.152344 L 669.246094 647.914062 C 669.222656 648.226562 668.957031 648.492188 668.640625 648.492188 Z M 668.640625 648.492188 " fill-opacity="1" fill-rule="evenodd"/><path fill="#000000" d="M 673.042969 648.492188 C 672.707031 648.492188 672.441406 648.226562 672.441406 647.890625 L 672.441406 642.136719 C 672.441406 641.824219 672.707031 641.558594 673.042969 641.558594 C 673.382812 641.558594 673.648438 641.824219 673.648438 642.136719 L 673.648438 647.914062 C 673.625 648.226562 673.335938 648.492188 673.042969 648.492188 Z M 673.042969 648.492188 " fill-opacity="1" fill-rule="evenodd"/><path fill="#000000" d="M 677.449219 648.492188 C 677.109375 648.492188 676.84375 648.226562 676.84375 647.890625 L 676.84375 638.8125 C 676.84375 638.476562 677.109375 638.210938 677.449219 638.210938 C 677.761719 638.210938 678.050781 638.476562 678.050781 638.8125 L 678.050781 647.914062 C 678.003906 648.226562 677.738281 648.492188 677.449219 648.492188 Z M 677.449219 648.492188 " fill-opacity="1" fill-rule="evenodd"/><path fill="#000000" d="M 679.699219 648.492188 L 662.011719 648.492188 C 661.671875 648.492188 661.40625 648.226562 661.40625 647.890625 C 661.40625 647.554688 661.671875 647.289062 662.011719 647.289062 L 679.699219 647.289062 C 680.011719 647.289062 680.300781 647.554688 680.300781 647.890625 C 680.300781 648.226562 679.988281 648.492188 679.699219 648.492188 Z M 679.699219 648.492188 " fill-opacity="1" fill-rule="evenodd"/></svg>