<svg class="stars" width="342" height="264" viewBox="0 0 342 264" fill="none" xmlns="http://www.w3.org/2000/svg">
<g clip-path="url(#clip0)">
<path d="M121.531 122.244C120.166 122.244 118.972 122.758 118.119 123.614C117.266 124.469 116.754 125.668 116.754 127.037C116.754 129.775 118.972 131.829 121.531 131.829C124.26 131.829 126.307 129.604 126.307 127.037C126.478 124.469 124.26 122.244 121.531 122.244Z" fill="white" fill-opacity="1" class="svgdots-9" style="fill:#006699"></path>
<path d="M121.528 32.3856C124.258 32.3856 126.305 30.1606 126.305 27.5932C126.305 24.8547 124.087 22.8008 121.528 22.8008C120.164 22.8008 118.969 23.3142 118.116 24.17C117.264 25.0258 116.752 26.2239 116.752 27.5932C116.752 30.3317 118.969 32.3856 121.528 32.3856Z" fill="white" fill-opacity="1" class="svgdots-1" style="fill:#4D4D4D"></path>
<path d="M121.531 72.6079C120.166 72.6079 118.972 73.1214 118.119 73.9771C117.266 74.8329 116.754 76.0311 116.754 77.4003C116.754 80.1389 118.972 82.1927 121.531 82.1927C124.26 82.1927 126.307 79.9677 126.307 77.4003C126.478 74.6618 124.26 72.6079 121.531 72.6079Z" fill="white" fill-opacity="1" class="svgdots-9" style="fill:#006699"></path>
<path d="M77.0087 82.1929C79.7381 82.1929 81.7852 79.9678 81.7852 77.4004C81.7852 74.6619 79.5675 72.608 77.0087 72.608C75.644 72.608 74.4499 73.1215 73.5969 73.9773C72.744 74.8331 72.2322 76.0312 72.2322 77.4004C72.0616 79.9678 74.2793 82.1929 77.0087 82.1929Z" fill="white" fill-opacity="1" class="svgdots-6" style="fill:#002a33"></path>
<path d="M32.2235 82.1929C34.9529 82.1929 37 79.9678 37 77.4004C37 74.6619 34.7823 72.608 32.2235 72.608C30.8588 72.608 29.6647 73.1215 28.8118 73.9773C27.9588 74.8331 27.4471 76.0312 27.4471 77.4004C27.2765 79.9678 29.4941 82.1929 32.2235 82.1929Z" fill="white" fill-opacity="1" class="svgdots-5" style="fill:#4D4D4D"></path>
<path d="M77.0048 132C79.7342 132 81.7812 129.775 81.7812 127.208C81.7812 124.469 79.5636 122.415 77.0048 122.415C75.6401 122.415 74.446 122.929 73.593 123.784C72.7401 124.64 72.2283 125.838 72.2283 127.208C72.0577 129.775 74.2754 132 77.0048 132Z" fill="#00D4FF" fill-opacity="1" class="svgdots-3" style="fill:#666666"></path>
<path d="M77.0048 22.8008C75.6401 22.8008 74.446 23.3142 73.593 24.17C72.7401 25.0258 72.2283 26.2239 72.2283 27.5932C72.2283 30.3317 74.446 32.3856 77.0048 32.3856C79.7342 32.3856 81.7812 30.1606 81.7812 27.5932C81.7812 24.8547 79.5636 22.8008 77.0048 22.8008Z" fill="white" fill-opacity="1" class="svgdots-5" style="fill:#4D4D4D"></path>
<path d="M166.224 82.1927C168.953 82.1927 171 79.9677 171 77.4003C171 74.6618 168.782 72.6079 166.224 72.6079C164.859 72.6079 163.665 73.1214 162.812 73.9771C161.959 74.8329 161.447 76.0311 161.447 77.4003C161.447 79.9677 163.494 82.1927 166.224 82.1927Z" fill="white" fill-opacity="1" class="svgdots-9" style="fill:#006699"></path>
</g>
<g clip-path="url(#clip1)">
<path d="M121.531 254.245C120.166 254.245 118.972 254.758 118.119 255.614C117.266 256.47 116.754 257.668 116.754 259.037C116.754 261.776 118.972 263.829 121.531 263.829C124.26 263.829 126.307 261.604 126.307 259.037C126.478 256.47 124.26 254.245 121.531 254.245Z" fill="white" fill-opacity="1" class="svgdots-9" style="fill:#006699"></path>
<path d="M121.528 164.386C124.258 164.386 126.305 162.161 126.305 159.593C126.305 156.855 124.087 154.801 121.528 154.801C120.164 154.801 118.969 155.314 118.116 156.17C117.264 157.026 116.752 158.224 116.752 159.593C116.752 162.332 118.969 164.386 121.528 164.386Z" fill="white" fill-opacity="1" class="svgdots-8" style="fill:#313131"></path>
<path d="M121.531 204.608C120.166 204.608 118.972 205.122 118.119 205.977C117.266 206.833 116.754 208.031 116.754 209.401C116.754 212.139 118.972 214.193 121.531 214.193C124.26 214.193 126.307 211.968 126.307 209.401C126.478 206.662 124.26 204.608 121.531 204.608Z" fill="white" fill-opacity="1" class="svgdots-2" style="fill:#002a33"></path>
<path d="M77.0087 214.193C79.7381 214.193 81.7852 211.968 81.7852 209.401C81.7852 206.662 79.5675 204.608 77.0087 204.608C75.644 204.608 74.4499 205.122 73.5969 205.978C72.744 206.833 72.2322 208.031 72.2322 209.401C72.0616 211.968 74.2793 214.193 77.0087 214.193Z" fill="white" fill-opacity="1" class="svgdots-3" style="fill:#666666"></path>
<path d="M32.2235 214.193C34.9529 214.193 37 211.968 37 209.401C37 206.662 34.7823 204.608 32.2235 204.608C30.8588 204.608 29.6647 205.122 28.8118 205.978C27.9588 206.833 27.4471 208.031 27.4471 209.401C27.2765 211.968 29.4941 214.193 32.2235 214.193Z" fill="white" fill-opacity="1" class="svgdots-1" style="fill:#4D4D4D"></path>
<path d="M77.0048 264C79.7342 264 81.7812 261.775 81.7812 259.208C81.7812 256.469 79.5636 254.415 77.0048 254.415C75.6401 254.415 74.446 254.929 73.593 255.785C72.7401 256.64 72.2283 257.839 72.2283 259.208C72.0577 261.775 74.2754 264 77.0048 264Z" fill="#00D4FF" fill-opacity="1" class="svgdots-9" style="fill:#006699"></path>
<path d="M77.0048 154.801C75.6401 154.801 74.446 155.314 73.593 156.17C72.7401 157.026 72.2283 158.224 72.2283 159.593C72.2283 162.332 74.446 164.386 77.0048 164.386C79.7342 164.386 81.7812 162.161 81.7812 159.593C81.7812 156.855 79.5636 154.801 77.0048 154.801Z" fill="white" fill-opacity="1" class="svgdots-5" style="fill:#4D4D4D"></path>
<path d="M166.224 214.193C168.953 214.193 171 211.968 171 209.401C171 206.662 168.782 204.608 166.224 204.608C164.859 204.608 163.665 205.122 162.812 205.977C161.959 206.833 161.447 208.031 161.447 209.401C161.447 211.968 163.494 214.193 166.224 214.193Z" fill="white" fill-opacity="1" class="svgdots-5" style="fill:#4D4D4D"></path>
</g>
<g clip-path="url(#clip2)">
<path d="M292.531 122.244C291.166 122.244 289.972 122.758 289.119 123.614C288.266 124.469 287.754 125.668 287.754 127.037C287.754 129.775 289.972 131.829 292.531 131.829C295.26 131.829 297.307 129.604 297.307 127.037C297.478 124.469 295.26 122.244 292.531 122.244Z" fill="white" fill-opacity="1" class="svgdots-1" style="fill:#4D4D4D"></path>
<path d="M292.528 32.3856C295.258 32.3856 297.305 30.1606 297.305 27.5932C297.305 24.8547 295.087 22.8008 292.528 22.8008C291.164 22.8008 289.969 23.3142 289.116 24.17C288.264 25.0258 287.752 26.2239 287.752 27.5932C287.752 30.3317 289.969 32.3856 292.528 32.3856Z" fill="white" fill-opacity="1" class="svgdots-3" style="fill:#666666"></path>
<path d="M292.531 72.6079C291.166 72.6079 289.972 73.1214 289.119 73.9771C288.266 74.8329 287.754 76.0311 287.754 77.4003C287.754 80.1389 289.972 82.1927 292.531 82.1927C295.26 82.1927 297.307 79.9677 297.307 77.4003C297.478 74.6618 295.26 72.6079 292.531 72.6079Z" fill="white" fill-opacity="1" class="svgdots-6" style="fill:#002a33"></path>
<path d="M248.009 82.1929C250.738 82.1929 252.785 79.9678 252.785 77.4004C252.785 74.6619 250.568 72.608 248.009 72.608C246.644 72.608 245.45 73.1215 244.597 73.9773C243.744 74.8331 243.232 76.0312 243.232 77.4004C243.062 79.9678 245.279 82.1929 248.009 82.1929Z" fill="white" fill-opacity="1" class="svgdots-3" style="fill:#666666"></path>
<path d="M203.224 82.1929C205.953 82.1929 208 79.9678 208 77.4004C208 74.6619 205.782 72.608 203.224 72.608C201.859 72.608 200.665 73.1215 199.812 73.9773C198.959 74.8331 198.447 76.0312 198.447 77.4004C198.276 79.9678 200.494 82.1929 203.224 82.1929Z" fill="white" fill-opacity="1" class="svgdots-8" style="fill:#313131"></path>
<path d="M248.005 132C250.734 132 252.781 129.775 252.781 127.208C252.781 124.469 250.564 122.415 248.005 122.415C246.64 122.415 245.446 122.929 244.593 123.784C243.74 124.64 243.228 125.838 243.228 127.208C243.058 129.775 245.275 132 248.005 132Z" fill="#00D4FF" fill-opacity="1" class="svgdots-4" style="fill:#313131"></path>
<path d="M248.005 22.8008C246.64 22.8008 245.446 23.3142 244.593 24.17C243.74 25.0258 243.228 26.2239 243.228 27.5932C243.228 30.3317 245.446 32.3856 248.005 32.3856C250.734 32.3856 252.781 30.1606 252.781 27.5932C252.781 24.8547 250.564 22.8008 248.005 22.8008Z" fill="white" fill-opacity="1" class="svgdots-9" style="fill:#006699"></path>
<path d="M337.224 82.1927C339.953 82.1927 342 79.9677 342 77.4003C342 74.6618 339.782 72.6079 337.224 72.6079C335.859 72.6079 334.665 73.1214 333.812 73.9771C332.959 74.8329 332.447 76.0311 332.447 77.4003C332.447 79.9677 334.494 82.1927 337.224 82.1927Z" fill="white" fill-opacity="1" class="svgdots-4" style="fill:#313131"></path>
</g>
<defs>
<clipPath id="clip0">
<rect width="171" height="132" fill="white" transform="translate(171 132) rotate(180)"></rect>
</clipPath>
<clipPath id="clip1">
<rect width="171" height="132" fill="white" transform="translate(171 264) rotate(180)"></rect>
</clipPath>
<clipPath id="clip2">
<rect width="171" height="132" fill="white" transform="translate(342 132) rotate(180)"></rect>
</clipPath>
</defs>
</svg>