<svg width="320" height="70" viewBox="0 0 320 70" fill="none" xmlns="http://www.w3.org/2000/svg">
<g clip-path="url(#clip0)">
<path d="M105.292 49.5127C105.292 48.9475 105.505 48.453 105.859 48.0997C106.214 47.7465 106.71 47.5345 107.277 47.5345C108.411 47.5345 109.262 48.453 109.262 49.5127C109.262 50.643 108.34 51.4908 107.277 51.4908C106.214 51.5615 105.292 50.643 105.292 49.5127Z" fill="white" fill-opacity="0.1"/>
<path d="M68.0781 49.5116C68.0781 50.642 67.1566 51.4897 66.0934 51.4897C64.9592 51.4897 64.1086 50.5713 64.1086 49.5116C64.1086 48.9464 64.3213 48.4519 64.6757 48.0987C65.0301 47.7454 65.5263 47.5335 66.0934 47.5335C67.2275 47.5335 68.0781 48.4519 68.0781 49.5116Z" fill="white" fill-opacity="0.08"/>
<path d="M84.7336 49.5127C84.7336 48.9475 84.9463 48.453 85.3007 48.0997C85.6551 47.7465 86.1513 47.5345 86.7184 47.5345C87.8525 47.5345 88.7031 48.453 88.7031 49.5127C88.7031 50.643 87.7816 51.4908 86.7184 51.4908C85.5842 51.5615 84.7336 50.643 84.7336 49.5127Z" fill="white" fill-opacity="0.2"/>
<path d="M88.7031 31.0741C88.7031 32.2045 87.7816 33.0522 86.7184 33.0522C85.5842 33.0522 84.7336 32.1338 84.7336 31.0741C84.7336 30.5089 84.9463 30.0144 85.3007 29.6612C85.6551 29.3079 86.1513 29.096 86.7184 29.096C87.7816 29.0253 88.7031 29.9437 88.7031 31.0741Z" fill="white" fill-opacity="0.1"/>
<path d="M88.7031 12.5267C88.7031 13.6571 87.7816 14.5049 86.7184 14.5049C85.5842 14.5049 84.7336 13.5865 84.7336 12.5267C84.7336 11.9616 84.9463 11.467 85.3007 11.1138C85.6551 10.7606 86.1513 10.5486 86.7184 10.5486C87.7816 10.478 88.7031 11.3964 88.7031 12.5267Z" fill="white" fill-opacity="0.08"/>
<path d="M109.332 31.0726C109.332 32.203 108.411 33.0508 107.347 33.0508C106.213 33.0508 105.363 32.1324 105.363 31.0726C105.363 30.5075 105.575 30.0129 105.93 29.6597C106.284 29.3065 106.78 29.0945 107.347 29.0945C108.411 29.0239 109.332 29.9423 109.332 31.0726Z" fill="#00D4FF" fill-opacity="0.2"/>
<path d="M64.1086 31.0726C64.1086 30.5075 64.3213 30.0129 64.6757 29.6597C65.0301 29.3065 65.5263 29.0945 66.0934 29.0945C67.2275 29.0945 68.0781 30.0129 68.0781 31.0726C68.0781 32.203 67.1566 33.0508 66.0934 33.0508C64.9592 33.0508 64.1086 32.1324 64.1086 31.0726Z" fill="white" fill-opacity="0.2"/>
<path d="M88.7031 68.0219C88.7031 69.1522 87.7816 70 86.7184 70C85.5842 70 84.7336 69.0816 84.7336 68.0219C84.7336 67.4567 84.9463 66.9622 85.3007 66.6089C85.6551 66.2557 86.1513 66.0437 86.7184 66.0437C87.7816 66.0437 88.7031 66.8915 88.7031 68.0219Z" fill="white" fill-opacity="0.1"/>
</g>
<g clip-path="url(#clip1)">
<path d="M159.96 49.5127C159.96 48.9475 160.173 48.453 160.527 48.0997C160.882 47.7465 161.378 47.5345 161.945 47.5345C163.079 47.5345 163.93 48.453 163.93 49.5127C163.93 50.643 163.008 51.4908 161.945 51.4908C160.882 51.5615 159.96 50.643 159.96 49.5127Z" fill="white" fill-opacity="0.1"/>
<path d="M122.746 49.5116C122.746 50.642 121.825 51.4897 120.761 51.4897C119.627 51.4897 118.777 50.5713 118.777 49.5116C118.777 48.9464 118.989 48.4519 119.344 48.0987C119.698 47.7454 120.194 47.5335 120.761 47.5335C121.895 47.5335 122.746 48.4519 122.746 49.5116Z" fill="white" fill-opacity="0.08"/>
<path d="M139.402 49.5127C139.402 48.9475 139.614 48.453 139.969 48.0997C140.323 47.7465 140.819 47.5345 141.386 47.5345C142.52 47.5345 143.371 48.453 143.371 49.5127C143.371 50.643 142.45 51.4908 141.386 51.4908C140.252 51.5615 139.402 50.643 139.402 49.5127Z" fill="white" fill-opacity="0.2"/>
<path d="M143.371 31.0741C143.371 32.2045 142.45 33.0522 141.386 33.0522C140.252 33.0522 139.402 32.1338 139.402 31.0741C139.402 30.5089 139.614 30.0144 139.969 29.6612C140.323 29.3079 140.819 29.096 141.386 29.096C142.45 29.0253 143.371 29.9437 143.371 31.0741Z" fill="white" fill-opacity="0.1"/>
<path d="M143.371 12.5267C143.371 13.6571 142.45 14.5049 141.386 14.5049C140.252 14.5049 139.402 13.5865 139.402 12.5267C139.402 11.9616 139.614 11.467 139.969 11.1138C140.323 10.7606 140.819 10.5486 141.386 10.5486C142.45 10.478 143.371 11.3964 143.371 12.5267Z" fill="white" fill-opacity="0.08"/>
<path d="M164 31.0726C164 32.203 163.079 33.0508 162.015 33.0508C160.881 33.0508 160.03 32.1324 160.03 31.0726C160.03 30.5075 160.243 30.0129 160.598 29.6597C160.952 29.3065 161.448 29.0945 162.015 29.0945C163.079 29.0239 164 29.9423 164 31.0726Z" fill="#00D4FF" fill-opacity="0.2"/>
<path d="M118.777 31.0726C118.777 30.5075 118.989 30.0129 119.344 29.6597C119.698 29.3065 120.194 29.0945 120.761 29.0945C121.895 29.0945 122.746 30.0129 122.746 31.0726C122.746 32.203 121.825 33.0508 120.761 33.0508C119.627 33.0508 118.777 32.1324 118.777 31.0726Z" fill="white" fill-opacity="0.2"/>
<path d="M143.371 68.0219C143.371 69.1522 142.45 70 141.386 70C140.252 70 139.402 69.0816 139.402 68.0219C139.402 67.4567 139.614 66.9622 139.969 66.6089C140.323 66.2557 140.819 66.0437 141.386 66.0437C142.45 66.0437 143.371 66.8915 143.371 68.0219Z" fill="white" fill-opacity="0.1"/>
</g>
<g clip-path="url(#clip2)">
<path d="M50.6282 49.5127C50.6282 48.9475 50.8408 48.453 51.1952 48.0997C51.5497 47.7465 52.0458 47.5345 52.6129 47.5345C53.7471 47.5345 54.5977 48.453 54.5977 49.5127C54.5977 50.643 53.6762 51.4908 52.6129 51.4908C51.5497 51.5615 50.6282 50.643 50.6282 49.5127Z" fill="white" fill-opacity="0.1"/>
<path d="M13.4141 49.5116C13.4141 50.642 12.4926 51.4897 11.4293 51.4897C10.2952 51.4897 9.44458 50.5713 9.44458 49.5116C9.44458 48.9464 9.65723 48.4519 10.0116 48.0987C10.3661 47.7454 10.8623 47.5335 11.4293 47.5335C12.5635 47.5335 13.4141 48.4519 13.4141 49.5116Z" fill="white" fill-opacity="0.08"/>
<path d="M30.0696 49.5127C30.0696 48.9475 30.2822 48.453 30.6366 48.0997C30.9911 47.7465 31.4873 47.5345 32.0543 47.5345C33.1885 47.5345 34.0391 48.453 34.0391 49.5127C34.0391 50.643 33.1176 51.4908 32.0543 51.4908C30.9202 51.5615 30.0696 50.643 30.0696 49.5127Z" fill="white" fill-opacity="0.2"/>
<path d="M34.0391 31.0741C34.0391 32.2045 33.1176 33.0522 32.0543 33.0522C30.9202 33.0522 30.0696 32.1338 30.0696 31.0741C30.0696 30.5089 30.2822 30.0144 30.6366 29.6612C30.9911 29.3079 31.4873 29.096 32.0543 29.096C33.1176 29.0253 34.0391 29.9437 34.0391 31.0741Z" fill="white" fill-opacity="0.1"/>
<path d="M34.0391 12.5267C34.0391 13.6571 33.1176 14.5049 32.0543 14.5049C30.9202 14.5049 30.0696 13.5865 30.0696 12.5267C30.0696 11.9616 30.2822 11.467 30.6366 11.1138C30.9911 10.7606 31.4873 10.5486 32.0543 10.5486C33.1176 10.478 34.0391 11.3964 34.0391 12.5267Z" fill="white" fill-opacity="0.08"/>
<path d="M54.668 31.0726C54.668 32.203 53.7465 33.0508 52.6832 33.0508C51.5491 33.0508 50.6984 32.1324 50.6984 31.0726C50.6984 30.5075 50.9111 30.0129 51.2656 29.6597C51.62 29.3065 52.1162 29.0945 52.6832 29.0945C53.7465 29.0239 54.668 29.9423 54.668 31.0726Z" fill="#00D4FF" fill-opacity="0.2"/>
<path d="M9.44458 31.0726C9.44458 30.5075 9.65723 30.0129 10.0116 29.6597C10.3661 29.3065 10.8623 29.0945 11.4293 29.0945C12.5635 29.0945 13.4141 30.0129 13.4141 31.0726C13.4141 32.203 12.4926 33.0508 11.4293 33.0508C10.2952 33.0508 9.44458 32.1324 9.44458 31.0726Z" fill="white" fill-opacity="0.2"/>
<path d="M34.0391 68.0219C34.0391 69.1522 33.1176 70 32.0543 70C30.9202 70 30.0696 69.0816 30.0696 68.0219C30.0696 67.4567 30.2822 66.9622 30.6366 66.6089C30.9911 66.2557 31.4873 66.0437 32.0543 66.0437C33.1176 66.0437 34.0391 66.8915 34.0391 68.0219Z" fill="white" fill-opacity="0.1"/>
</g>
<g clip-path="url(#clip3)">
<path d="M265.292 49.5127C265.292 48.9475 265.505 48.453 265.859 48.0997C266.214 47.7465 266.71 47.5345 267.277 47.5345C268.411 47.5345 269.262 48.453 269.262 49.5127C269.262 50.643 268.34 51.4908 267.277 51.4908C266.214 51.5615 265.292 50.643 265.292 49.5127Z" fill="white" fill-opacity="0.1"/>
<path d="M228.078 49.5116C228.078 50.642 227.157 51.4897 226.093 51.4897C224.959 51.4897 224.109 50.5713 224.109 49.5116C224.109 48.9464 224.321 48.4519 224.676 48.0987C225.03 47.7454 225.526 47.5335 226.093 47.5335C227.228 47.5335 228.078 48.4519 228.078 49.5116Z" fill="white" fill-opacity="0.08"/>
<path d="M244.734 49.5127C244.734 48.9475 244.946 48.453 245.301 48.0997C245.655 47.7465 246.151 47.5345 246.718 47.5345C247.853 47.5345 248.703 48.453 248.703 49.5127C248.703 50.643 247.782 51.4908 246.718 51.4908C245.584 51.5615 244.734 50.643 244.734 49.5127Z" fill="white" fill-opacity="0.2"/>
<path d="M248.703 31.0741C248.703 32.2045 247.782 33.0522 246.718 33.0522C245.584 33.0522 244.734 32.1338 244.734 31.0741C244.734 30.5089 244.946 30.0144 245.301 29.6612C245.655 29.3079 246.151 29.096 246.718 29.096C247.782 29.0253 248.703 29.9437 248.703 31.0741Z" fill="white" fill-opacity="0.1"/>
<path d="M248.703 12.5267C248.703 13.6571 247.782 14.5049 246.718 14.5049C245.584 14.5049 244.734 13.5865 244.734 12.5267C244.734 11.9616 244.946 11.467 245.301 11.1138C245.655 10.7606 246.151 10.5486 246.718 10.5486C247.782 10.478 248.703 11.3964 248.703 12.5267Z" fill="white" fill-opacity="0.08"/>
<path d="M269.332 31.0726C269.332 32.203 268.411 33.0508 267.347 33.0508C266.213 33.0508 265.363 32.1324 265.363 31.0726C265.363 30.5075 265.575 30.0129 265.93 29.6597C266.284 29.3065 266.78 29.0945 267.347 29.0945C268.411 29.0239 269.332 29.9423 269.332 31.0726Z" fill="#00D4FF" fill-opacity="0.2"/>
<path d="M224.109 31.0726C224.109 30.5075 224.321 30.0129 224.676 29.6597C225.03 29.3065 225.526 29.0945 226.093 29.0945C227.228 29.0945 228.078 30.0129 228.078 31.0726C228.078 32.203 227.157 33.0508 226.093 33.0508C224.959 33.0508 224.109 32.1324 224.109 31.0726Z" fill="white" fill-opacity="0.2"/>
<path d="M248.703 68.0219C248.703 69.1522 247.782 70 246.718 70C245.584 70 244.734 69.0816 244.734 68.0219C244.734 67.4567 244.946 66.9622 245.301 66.6089C245.655 66.2557 246.151 66.0437 246.718 66.0437C247.782 66.0437 248.703 66.8915 248.703 68.0219Z" fill="white" fill-opacity="0.1"/>
</g>
<g clip-path="url(#clip4)">
<path d="M319.96 49.5127C319.96 48.9475 320.173 48.453 320.527 48.0997C320.882 47.7465 321.378 47.5345 321.945 47.5345C323.079 47.5345 323.93 48.453 323.93 49.5127C323.93 50.643 323.008 51.4908 321.945 51.4908C320.882 51.5615 319.96 50.643 319.96 49.5127Z" fill="white" fill-opacity="0.1"/>
<path d="M282.746 49.5116C282.746 50.642 281.825 51.4897 280.761 51.4897C279.627 51.4897 278.777 50.5713 278.777 49.5116C278.777 48.9464 278.989 48.4519 279.344 48.0987C279.698 47.7454 280.194 47.5335 280.761 47.5335C281.895 47.5335 282.746 48.4519 282.746 49.5116Z" fill="white" fill-opacity="0.08"/>
<path d="M299.402 49.5127C299.402 48.9475 299.614 48.453 299.969 48.0997C300.323 47.7465 300.819 47.5345 301.386 47.5345C302.52 47.5345 303.371 48.453 303.371 49.5127C303.371 50.643 302.45 51.4908 301.386 51.4908C300.252 51.5615 299.402 50.643 299.402 49.5127Z" fill="white" fill-opacity="0.2"/>
<path d="M303.371 31.0741C303.371 32.2045 302.45 33.0522 301.386 33.0522C300.252 33.0522 299.402 32.1338 299.402 31.0741C299.402 30.5089 299.614 30.0144 299.969 29.6612C300.323 29.3079 300.819 29.096 301.386 29.096C302.45 29.0253 303.371 29.9437 303.371 31.0741Z" fill="white" fill-opacity="0.1"/>
<path d="M303.371 12.5267C303.371 13.6571 302.45 14.5049 301.386 14.5049C300.252 14.5049 299.402 13.5865 299.402 12.5267C299.402 11.9616 299.614 11.467 299.969 11.1138C300.323 10.7606 300.819 10.5486 301.386 10.5486C302.45 10.478 303.371 11.3964 303.371 12.5267Z" fill="white" fill-opacity="0.08"/>
<path d="M278.777 31.0726C278.777 30.5075 278.989 30.0129 279.344 29.6597C279.698 29.3065 280.194 29.0945 280.761 29.0945C281.895 29.0945 282.746 30.0129 282.746 31.0726C282.746 32.203 281.825 33.0508 280.761 33.0508C279.627 33.0508 278.777 32.1324 278.777 31.0726Z" fill="white" fill-opacity="0.2"/>
<path d="M303.371 68.0219C303.371 69.1522 302.45 70 301.386 70C300.252 70 299.402 69.0816 299.402 68.0219C299.402 67.4567 299.614 66.9622 299.969 66.6089C300.323 66.2557 300.819 66.0437 301.386 66.0437C302.45 66.0437 303.371 66.8915 303.371 68.0219Z" fill="white" fill-opacity="0.1"/>
</g>
<g clip-path="url(#clip5)">
<path d="M210.628 49.5127C210.628 48.9475 210.841 48.453 211.195 48.0997C211.55 47.7465 212.046 47.5345 212.613 47.5345C213.747 47.5345 214.598 48.453 214.598 49.5127C214.598 50.643 213.676 51.4908 212.613 51.4908C211.55 51.5615 210.628 50.643 210.628 49.5127Z" fill="white" fill-opacity="0.1"/>
<path d="M173.414 49.5116C173.414 50.642 172.493 51.4897 171.429 51.4897C170.295 51.4897 169.445 50.5713 169.445 49.5116C169.445 48.9464 169.657 48.4519 170.012 48.0987C170.366 47.7454 170.862 47.5335 171.429 47.5335C172.563 47.5335 173.414 48.4519 173.414 49.5116Z" fill="white" fill-opacity="0.08"/>
<path d="M190.07 49.5127C190.07 48.9475 190.282 48.453 190.637 48.0997C190.991 47.7465 191.487 47.5345 192.054 47.5345C193.188 47.5345 194.039 48.453 194.039 49.5127C194.039 50.643 193.118 51.4908 192.054 51.4908C190.92 51.5615 190.07 50.643 190.07 49.5127Z" fill="white" fill-opacity="0.2"/>
<path d="M194.039 31.0741C194.039 32.2045 193.118 33.0522 192.054 33.0522C190.92 33.0522 190.07 32.1338 190.07 31.0741C190.07 30.5089 190.282 30.0144 190.637 29.6612C190.991 29.3079 191.487 29.096 192.054 29.096C193.118 29.0253 194.039 29.9437 194.039 31.0741Z" fill="white" fill-opacity="0.1"/>
<path d="M194.039 12.5267C194.039 13.6571 193.118 14.5049 192.054 14.5049C190.92 14.5049 190.07 13.5865 190.07 12.5267C190.07 11.9616 190.282 11.467 190.637 11.1138C190.991 10.7606 191.487 10.5486 192.054 10.5486C193.118 10.478 194.039 11.3964 194.039 12.5267Z" fill="white" fill-opacity="0.08"/>
<path d="M214.668 31.0726C214.668 32.203 213.746 33.0508 212.683 33.0508C211.549 33.0508 210.698 32.1324 210.698 31.0726C210.698 30.5075 210.911 30.0129 211.266 29.6597C211.62 29.3065 212.116 29.0945 212.683 29.0945C213.746 29.0239 214.668 29.9423 214.668 31.0726Z" fill="#00D4FF" fill-opacity="0.2"/>
<path d="M169.445 31.0726C169.445 30.5075 169.657 30.0129 170.012 29.6597C170.366 29.3065 170.862 29.0945 171.429 29.0945C172.563 29.0945 173.414 30.0129 173.414 31.0726C173.414 32.203 172.493 33.0508 171.429 33.0508C170.295 33.0508 169.445 32.1324 169.445 31.0726Z" fill="white" fill-opacity="0.2"/>
<path d="M194.039 68.0219C194.039 69.1522 193.118 70 192.054 70C190.92 70 190.07 69.0816 190.07 68.0219C190.07 67.4567 190.282 66.9622 190.637 66.6089C190.991 66.2557 191.487 66.0437 192.054 66.0437C193.118 66.0437 194.039 66.8915 194.039 68.0219Z" fill="white" fill-opacity="0.1"/>
</g>
<defs>
<clipPath id="clip0">
<rect width="70" height="54.6666" fill="white" transform="matrix(9.97421e-08 -1 -1 -9.89549e-08 109.332 70)"/>
</clipPath>
<clipPath id="clip1">
<rect width="70" height="54.6666" fill="white" transform="matrix(9.97421e-08 -1 -1 -9.89549e-08 164 70)"/>
</clipPath>
<clipPath id="clip2">
<rect width="70" height="54.6666" fill="white" transform="matrix(9.97421e-08 -1 -1 -9.89549e-08 54.668 70)"/>
</clipPath>
<clipPath id="clip3">
<rect width="70" height="54.6666" fill="white" transform="matrix(9.97421e-08 -1 -1 -9.89549e-08 269.332 70)"/>
</clipPath>
<clipPath id="clip4">
<rect width="70" height="54.6666" fill="white" transform="matrix(9.97421e-08 -1 -1 -9.89549e-08 324 70)"/>
</clipPath>
<clipPath id="clip5">
<rect width="70" height="54.6666" fill="white" transform="matrix(9.97421e-08 -1 -1 -9.89549e-08 214.668 70)"/>
</clipPath>
</defs>
</svg>
