<svg class="stars" width="347" height="275" viewBox="0 0 347 275" fill="none" xmlns="http://www.w3.org/2000/svg">
<g clip-path="url(#clip0)">
<path d="M121.531 9.75575C120.166 9.75575 118.972 9.24229 118.119 8.3865C117.266 7.5307 116.754 6.33259 116.754 4.96332C116.754 2.22478 118.972 0.170898 121.531 0.170898C124.26 0.170898 126.307 2.39594 126.307 4.96332C126.478 7.5307 124.26 9.75575 121.531 9.75575Z" fill="white" fill-opacity="1" class="svgdots-2" style="fill:#002a33"></path>
<path d="M121.528 99.6143C124.258 99.6143 126.305 101.839 126.305 104.407C126.305 107.145 124.087 109.199 121.528 109.199C120.164 109.199 118.969 108.686 118.116 107.83C117.264 106.974 116.752 105.776 116.752 104.407C116.752 101.668 118.969 99.6143 121.528 99.6143Z" fill="white" fill-opacity="1" class="svgdots-1" style="fill:#4D4D4D"></path>
<path d="M121.531 59.3925C120.166 59.3925 118.972 58.879 118.119 58.0232C117.266 57.1674 116.754 55.9693 116.754 54.6C116.754 51.8615 118.972 49.8076 121.531 49.8076C124.26 49.8076 126.307 52.0327 126.307 54.6C126.478 57.3386 124.26 59.3925 121.531 59.3925Z" fill="white" fill-opacity="1" class="svgdots-7" style="fill:#666666"></path>
<path d="M77.0067 49.8066C79.7361 49.8066 81.7832 52.0317 81.7832 54.5991C81.7832 57.3376 79.5655 59.3915 77.0067 59.3915C75.642 59.3915 74.4479 58.878 73.595 58.0222C72.742 57.1664 72.2303 55.9683 72.2303 54.5991C72.0597 52.0317 74.2773 49.8066 77.0067 49.8066Z" fill="white" fill-opacity="1" class="svgdots-3" style="fill:#666666"></path>
<path d="M32.2235 49.8066C34.9529 49.8066 37 52.0317 37 54.5991C37 57.3376 34.7823 59.3915 32.2235 59.3915C30.8588 59.3915 29.6647 58.878 28.8118 58.0222C27.9588 57.1664 27.4471 55.9683 27.4471 54.5991C27.2765 52.0317 29.4941 49.8066 32.2235 49.8066Z" fill="white" fill-opacity="1" class="svgdots-9" style="fill:#006699"></path>
<path d="M77.0067 -4.17573e-07C79.7361 -1.7896e-07 81.7832 2.22504 81.7832 4.79242C81.7832 7.53097 79.5655 9.58495 77.0067 9.58495C75.642 9.58495 74.4479 9.07139 73.595 8.2156C72.742 7.35981 72.2303 6.16169 72.2303 4.79242C72.0597 2.22504 74.2773 -6.56186e-07 77.0067 -4.17573e-07Z" fill="#00D4FF" fill-opacity="1" class="svgdots-9" style="fill:#006699"></path>
<path d="M77.0067 109.199C75.642 109.199 74.4479 108.686 73.595 107.83C72.742 106.974 72.2303 105.776 72.2303 104.407C72.2303 101.668 74.4479 99.6143 77.0067 99.6143C79.7361 99.6143 81.7832 101.839 81.7832 104.407C81.7832 107.145 79.5655 109.199 77.0067 109.199Z" fill="white" fill-opacity="1" class="svgdots-7" style="fill:#666666"></path>
<path d="M166.224 49.8076C168.953 49.8076 171 52.0327 171 54.6C171 57.3386 168.782 59.3925 166.224 59.3925C164.859 59.3925 163.665 58.879 162.812 58.0232C161.959 57.1674 161.447 55.9693 161.447 54.6C161.447 52.0327 163.494 49.8076 166.224 49.8076Z" fill="white" fill-opacity="1" class="svgdots-9" style="fill:#006699"></path>
</g>
<g clip-path="url(#clip1)">
<path d="M121.531 152.756C120.166 152.756 118.972 152.242 118.119 151.386C117.266 150.531 116.754 149.333 116.754 147.963C116.754 145.225 118.972 143.171 121.531 143.171C124.26 143.171 126.307 145.396 126.307 147.963C126.478 150.531 124.26 152.756 121.531 152.756Z" fill="white" fill-opacity="1" class="svgdots-4" style="fill:#313131"></path>
<path d="M121.528 242.614C124.258 242.614 126.305 244.839 126.305 247.407C126.305 250.145 124.087 252.199 121.528 252.199C120.164 252.199 118.969 251.686 118.116 250.83C117.264 249.974 116.752 248.776 116.752 247.407C116.752 244.668 118.969 242.614 121.528 242.614Z" fill="white" fill-opacity="1" class="svgdots-5" style="fill:#4D4D4D"></path>
<path d="M121.531 202.392C120.166 202.392 118.972 201.879 118.119 201.023C117.266 200.167 116.754 198.969 116.754 197.6C116.754 194.862 118.972 192.808 121.531 192.808C124.26 192.808 126.307 195.033 126.307 197.6C126.478 200.339 124.26 202.392 121.531 202.392Z" fill="white" fill-opacity="1" class="svgdots-3" style="fill:#666666"></path>
<path d="M77.0067 192.807C79.7361 192.807 81.7832 195.032 81.7832 197.599C81.7832 200.338 79.5655 202.391 77.0067 202.391C75.642 202.391 74.4479 201.878 73.595 201.022C72.742 200.166 72.2303 198.968 72.2303 197.599C72.0597 195.032 74.2773 192.807 77.0067 192.807Z" fill="white" fill-opacity="1" class="svgdots-1" style="fill:#4D4D4D"></path>
<path d="M32.2235 192.807C34.9529 192.807 37 195.032 37 197.599C37 200.338 34.7823 202.391 32.2235 202.391C30.8588 202.391 29.6647 201.878 28.8118 201.022C27.9588 200.166 27.4471 198.968 27.4471 197.599C27.2765 195.032 29.4941 192.807 32.2235 192.807Z" fill="white" fill-opacity="1" class="svgdots-3" style="fill:#666666"></path>
<path d="M77.0067 143C79.7361 143 81.7832 145.225 81.7832 147.792C81.7832 150.531 79.5655 152.585 77.0067 152.585C75.642 152.585 74.4479 152.071 73.595 151.216C72.742 150.36 72.2303 149.162 72.2303 147.792C72.0597 145.225 74.2773 143 77.0067 143Z" fill="#00D4FF" fill-opacity="1" class="svgdots-1" style="fill:#4D4D4D"></path>
<path d="M77.0067 252.199C75.642 252.199 74.4479 251.686 73.595 250.83C72.742 249.974 72.2303 248.776 72.2303 247.407C72.2303 244.668 74.4479 242.614 77.0067 242.614C79.7361 242.614 81.7832 244.839 81.7832 247.407C81.7832 250.145 79.5655 252.199 77.0067 252.199Z" fill="white" fill-opacity="1" class="svgdots-6" style="fill:#002a33"></path>
<path d="M166.224 192.808C168.953 192.808 171 195.033 171 197.6C171 200.339 168.782 202.392 166.224 202.392C164.859 202.392 163.665 201.879 162.812 201.023C161.959 200.167 161.447 198.969 161.447 197.6C161.447 195.033 163.494 192.808 166.224 192.808Z" fill="white" fill-opacity="1" class="svgdots-5" style="fill:#4D4D4D"></path>
</g>
<g clip-path="url(#clip2)">
<path d="M297.531 152.756C296.166 152.756 294.972 152.242 294.119 151.386C293.266 150.531 292.754 149.333 292.754 147.963C292.754 145.225 294.972 143.171 297.531 143.171C300.26 143.171 302.307 145.396 302.307 147.963C302.478 150.531 300.26 152.756 297.531 152.756Z" fill="white" fill-opacity="1" class="svgdots-7" style="fill:#666666"></path>
<path d="M297.528 242.614C300.258 242.614 302.305 244.839 302.305 247.407C302.305 250.145 300.087 252.199 297.528 252.199C296.164 252.199 294.969 251.686 294.116 250.83C293.264 249.974 292.752 248.776 292.752 247.407C292.752 244.668 294.969 242.614 297.528 242.614Z" fill="white" fill-opacity="1" class="svgdots-2" style="fill:#002a33"></path>
<path d="M297.531 202.392C296.166 202.392 294.972 201.879 294.119 201.023C293.266 200.167 292.754 198.969 292.754 197.6C292.754 194.862 294.972 192.808 297.531 192.808C300.26 192.808 302.307 195.033 302.307 197.6C302.478 200.339 300.26 202.392 297.531 202.392Z" fill="white" fill-opacity="1" class="svgdots-6" style="fill:#002a33"></path>
<path d="M253.007 192.807C255.736 192.807 257.783 195.032 257.783 197.599C257.783 200.338 255.566 202.391 253.007 202.391C251.642 202.391 250.448 201.878 249.595 201.022C248.742 200.166 248.23 198.968 248.23 197.599C248.06 195.032 250.277 192.807 253.007 192.807Z" fill="white" fill-opacity="1" class="svgdots-7" style="fill:#666666"></path>
<path d="M208.224 192.807C210.953 192.807 213 195.032 213 197.599C213 200.338 210.782 202.391 208.224 202.391C206.859 202.391 205.665 201.878 204.812 201.022C203.959 200.166 203.447 198.968 203.447 197.599C203.276 195.032 205.494 192.807 208.224 192.807Z" fill="white" fill-opacity="1" class="svgdots-1" style="fill:#4D4D4D"></path>
<path d="M253.007 143C255.736 143 257.783 145.225 257.783 147.792C257.783 150.531 255.566 152.585 253.007 152.585C251.642 152.585 250.448 152.071 249.595 151.216C248.742 150.36 248.23 149.162 248.23 147.792C248.06 145.225 250.277 143 253.007 143Z" fill="#00D4FF" fill-opacity="1" class="svgdots-8" style="fill:#313131"></path>
<path d="M253.007 252.199C251.642 252.199 250.448 251.686 249.595 250.83C248.742 249.974 248.23 248.776 248.23 247.407C248.23 244.668 250.448 242.614 253.007 242.614C255.736 242.614 257.783 244.839 257.783 247.407C257.783 250.145 255.566 252.199 253.007 252.199Z" fill="white" fill-opacity="1" class="svgdots-5" style="fill:#4D4D4D"></path>
<path d="M342.224 192.808C344.953 192.808 347 195.033 347 197.6C347 200.339 344.782 202.392 342.224 202.392C340.859 202.392 339.665 201.879 338.812 201.023C337.959 200.167 337.447 198.969 337.447 197.6C337.447 195.033 339.494 192.808 342.224 192.808Z" fill="white" fill-opacity="1" class="svgdots-7" style="fill:#666666"></path>
</g>
<defs>
<clipPath id="clip0">
<rect width="171" height="132" fill="white" transform="matrix(-1 -8.74228e-08 -8.74228e-08 1 171 0)"></rect>
</clipPath>
<clipPath id="clip1">
<rect width="171" height="132" fill="white" transform="matrix(-1 -8.74228e-08 -8.74228e-08 1 171 143)"></rect>
</clipPath>
<clipPath id="clip2">
<rect width="171" height="132" fill="white" transform="matrix(-1 -8.74228e-08 -8.74228e-08 1 347 143)"></rect>
</clipPath>
</defs>
</svg>