<?xml version="1.0" encoding="UTF-8"?>
<!DOCTYPE svg PUBLIC "-//W3C//DTD SVG 1.1//EN" "http://www.w3.org/Graphics/SVG/1.1/DTD/svg11.dtd">
<svg xmlns="http://www.w3.org/2000/svg" version="1.1" width="2397px" height="769px" style="shape-rendering:geometricPrecision; text-rendering:geometricPrecision; image-rendering:optimizeQuality; fill-rule:evenodd; clip-rule:evenodd" xmlns:xlink="http://www.w3.org/1999/xlink">
<g><path style="opacity:0.841" fill="#030706" d="M 2396.5,55.5 C 2396.5,58.5 2396.5,61.5 2396.5,64.5C 2392.25,88.5722 2377.75,101.239 2353,102.5C 2326.79,100.293 2312.63,86.1259 2310.5,60C 2313,33.5 2327.5,19 2354,16.5C 2377.98,18.9851 2392.15,31.9851 2396.5,55.5 Z M 2385.5,40.5 C 2382.88,40.2317 2380.38,40.565 2378,41.5C 2374.47,51.0918 2371.14,60.7585 2368,70.5C 2365.13,60.7344 2361.97,51.0677 2358.5,41.5C 2356.26,40.5258 2353.92,40.1924 2351.5,40.5C 2350.37,53.4852 2349.37,66.4852 2348.5,79.5C 2350.5,79.5 2352.5,79.5 2354.5,79.5C 2354.58,69.4816 2355.08,59.4816 2356,49.5C 2358.8,58.8951 2361.8,68.2284 2365,77.5C 2366.4,79.1922 2368.23,79.8588 2370.5,79.5C 2373.56,69.8317 2376.72,60.165 2380,50.5C 2381.23,60.1212 2382.07,69.7879 2382.5,79.5C 2383.55,79.3505 2384.55,79.5172 2385.5,80C 2373.99,95.2983 2358.99,100.298 2340.5,95C 2319.18,85.1933 2311.85,69.0266 2318.5,46.5C 2321.77,45.513 2325.1,45.1796 2328.5,45.5C 2328.5,56.8333 2328.5,68.1667 2328.5,79.5C 2330.17,79.5 2331.83,79.5 2333.5,79.5C 2333.5,68.1667 2333.5,56.8333 2333.5,45.5C 2337.5,45.5 2341.5,45.5 2345.5,45.5C 2345.5,43.8333 2345.5,42.1667 2345.5,40.5C 2337.49,40.6664 2329.49,40.4997 2321.5,40C 2335.77,21.0794 2353.43,17.0794 2374.5,28C 2379.43,31.0979 2383.1,35.2646 2385.5,40.5 Z M 2385.5,40.5 C 2392.2,51.6435 2393.04,63.3102 2388,75.5C 2386.96,63.8435 2386.13,52.1769 2385.5,40.5 Z"/></g>
<g><path style="opacity:0.985" fill="#22649b" d="M 1511.5,49.5 C 1522.51,49.3335 1533.51,49.5002 1544.5,50C 1549.46,50.3024 1552.63,52.8024 1554,57.5C 1554.67,227.5 1554.67,397.5 1554,567.5C 1553.57,571.527 1551.41,574.027 1547.5,575C 1533.43,575.947 1519.43,575.614 1505.5,574C 1503.51,572.681 1502.35,570.848 1502,568.5C 1501.92,556.11 1501.25,543.777 1500,531.5C 1495.32,524.934 1489.82,524.101 1483.5,529C 1456.89,559.812 1423.22,577.812 1382.5,583C 1301.31,592.453 1234.47,566.286 1182,504.5C 1149.01,459.897 1136.01,409.897 1143,354.5C 1154.08,275.795 1196.25,221.295 1269.5,191C 1314.51,175.046 1360.17,172.713 1406.5,184C 1436.71,192.929 1463.04,208.262 1485.5,230C 1494.02,233.321 1499.19,230.487 1501,221.5C 1501.33,166.5 1501.67,111.5 1502,56.5C 1503.71,52.0737 1506.87,49.7404 1511.5,49.5 Z M 1333.5,226.5 C 1397.77,224.381 1447.27,250.048 1482,303.5C 1513.4,363.646 1509.4,421.313 1470,476.5C 1426.73,528.476 1372.23,545.976 1306.5,529C 1243.62,507.773 1207.12,464.273 1197,398.5C 1191.59,332.831 1216.42,282.331 1271.5,247C 1290.94,236.021 1311.6,229.188 1333.5,226.5 Z"/></g>
<g><path style="opacity:0.983" fill="#22649b" d="M 56.5,77.5 C 117.506,77.294 178.506,77.794 239.5,79C 271.544,80.0733 301.877,87.74 330.5,102C 365.903,122.921 387.403,153.754 395,194.5C 403.208,234.205 399.875,272.872 385,310.5C 367.389,347.767 338.556,371.6 298.5,382C 276.84,387.458 254.84,390.458 232.5,391C 191.167,391.333 149.833,391.667 108.5,392C 107.069,392.465 105.903,393.299 105,394.5C 104.667,461.833 104.333,529.167 104,596.5C 103.932,599.319 102.766,601.486 100.5,603C 85.1667,603.667 69.8333,603.667 54.5,603C 52.6667,602.5 51.5,601.333 51,599.5C 50.3333,426.833 50.3333,254.167 51,81.5C 51.3742,80.5838 51.8742,79.7504 52.5,79C 54.0581,78.79 55.3915,78.29 56.5,77.5 Z M 108.5,126.5 C 140.168,126.333 171.835,126.5 203.5,127C 226.364,127.486 249.031,129.82 271.5,134C 310.369,142.035 333.702,165.535 341.5,204.5C 355.205,295.29 316.205,341.123 224.5,342C 185.082,342.988 145.749,342.654 106.5,341C 106,340.5 105.5,340 105,339.5C 104.333,269.833 104.333,200.167 105,130.5C 105.69,128.65 106.856,127.316 108.5,126.5 Z"/></g>
<g><path style="opacity:0.975" fill="#e51f25" d="M 2287.5,92.5 C 2309.41,92.5823 2322.91,103.249 2328,124.5C 2328.57,155.323 2313.41,169.489 2282.5,167C 2259.56,159.293 2250.39,143.46 2255,119.5C 2260.62,104.029 2271.46,95.0294 2287.5,92.5 Z"/></g>
<g><path style="opacity:0.974" fill="#e51f25" d="M 1662.5,94.5 C 1685.17,92.3607 1700,102.027 1707,123.5C 1709.75,151.248 1697.25,166.581 1669.5,169.5C 1643.45,166.405 1631.28,151.738 1633,125.5C 1636.58,109.09 1646.41,98.7564 1662.5,94.5 Z"/></g>
<g><path style="opacity:0.982" fill="#22649b" d="M 1949.5,177.5 C 1986.05,174.363 2021.05,180.197 2054.5,195C 2075.82,206.644 2094.48,221.644 2110.5,240C 2114.62,241.845 2117.79,240.679 2120,236.5C 2120.33,221.833 2120.67,207.167 2121,192.5C 2121.35,190.152 2122.51,188.319 2124.5,187C 2137.79,185.43 2151.12,185.097 2164.5,186C 2169.15,185.445 2172.31,187.279 2174,191.5C 2174.67,305.833 2174.67,420.167 2174,534.5C 2173.06,650.107 2115.22,714.607 2000.5,728C 1940.77,733.408 1887.44,717.742 1840.5,681C 1814.97,656.948 1796.97,628.115 1786.5,594.5C 1786.49,590.349 1788.49,587.849 1792.5,587C 1806.83,586.333 1821.17,586.333 1835.5,587C 1842.71,597.244 1849.54,607.744 1856,618.5C 1886.58,659.286 1927.58,679.286 1979,678.5C 2067.09,676.411 2114.09,631.411 2120,543.5C 2120.67,535.833 2120.67,528.167 2120,520.5C 2116.38,514.508 2112.38,514.175 2108,519.5C 2079.37,559.577 2040.2,581.077 1990.5,584C 1904.33,589.337 1838.83,555.503 1794,482.5C 1770.85,436.151 1764.18,387.484 1774,336.5C 1786.12,279.422 1816.62,235.255 1865.5,204C 1891.77,189.408 1919.77,180.574 1949.5,177.5 Z M 1955.5,226.5 C 2005.16,222.547 2047.33,238.214 2082,273.5C 2112.29,309.966 2124.96,351.966 2120,399.5C 2111.83,457.665 2081.33,499.498 2028.5,525C 1970.92,546.016 1918.92,536.683 1872.5,497C 1836.27,459.98 1820.43,415.48 1825,363.5C 1831.36,296.48 1866.53,252.646 1930.5,232C 1938.93,229.951 1947.26,228.118 1955.5,226.5 Z"/></g>
<g><path style="opacity:0.988" fill="#22649b" d="M 1655.5,185.5 C 1666.88,185.144 1678.21,185.644 1689.5,187C 1693.41,187.973 1695.57,190.473 1696,194.5C 1696.67,318.5 1696.67,442.5 1696,566.5C 1695.37,570.467 1693.2,573.301 1689.5,575C 1676.12,576.216 1662.79,576.216 1649.5,575C 1647,573.833 1645.17,572 1644,569.5C 1643.33,443.833 1643.33,318.167 1644,192.5C 1646.59,187.962 1650.42,185.629 1655.5,185.5 Z"/></g>
<g><path style="opacity:0.984" fill="#22649b" d="M 2276.5,185.5 C 2287.21,185.188 2297.88,185.688 2308.5,187C 2313.57,188.628 2316.07,192.128 2316,197.5C 2316.67,320.167 2316.67,442.833 2316,565.5C 2315.28,570.113 2312.78,573.28 2308.5,575C 2295.83,575.667 2283.17,575.667 2270.5,575C 2266.23,573.73 2263.73,570.896 2263,566.5C 2262.33,442.833 2262.33,319.167 2263,195.5C 2264.97,188.611 2269.47,185.277 2276.5,185.5 Z"/></g>
<g><path style="opacity:0.981" fill="#22649b" d="M 865.5,204.5 C 934.489,204.414 989.989,231.414 1032,285.5C 1057.69,323.421 1070.19,365.421 1069.5,411.5C 1069.84,473.638 1047.17,525.471 1001.5,567C 995.694,572.145 989.361,576.478 982.5,580C 977.331,581.295 972.831,580.128 969,576.5C 963.491,567.485 958.491,558.151 954,548.5C 953.035,544.218 953.702,540.218 956,536.5C 991.227,508.861 1010.56,472.528 1014,427.5C 1018.59,383.844 1007.92,344.511 982,309.5C 943.738,265.297 895.571,247.797 837.5,257C 783.881,268.385 747.048,299.551 727,350.5C 707.156,407.935 715.156,460.935 751,509.5C 758.37,518.538 766.704,526.538 776,533.5C 779.746,538.06 780.413,543.06 778,548.5C 774.078,555.342 770.412,562.342 767,569.5C 765.207,572.295 763.04,574.795 760.5,577C 757.634,578.457 754.634,578.79 751.5,578C 705.368,548.964 677.202,507.464 667,453.5C 651.006,372.556 673.506,304.723 734.5,250C 773.102,220.41 816.769,205.243 865.5,204.5 Z"/></g>
<g><path style="opacity:0.985" fill="#22649b" d="M 605.5,206.5 C 610.511,206.334 615.511,206.501 620.5,207C 622.815,208.109 624.315,209.943 625,212.5C 625.667,225.833 625.667,239.167 625,252.5C 623.612,255.945 621.112,258.111 617.5,259C 550.469,268.363 516.302,306.863 515,374.5C 514.667,449.167 514.333,523.833 514,598.5C 513.167,600.667 511.667,602.167 509.5,603C 495.5,603.667 481.5,603.667 467.5,603C 464.227,602.06 462.394,599.893 462,596.5C 461.005,470.444 461.339,344.444 463,218.5C 463.5,216.667 464.667,215.5 466.5,215C 480.833,213 495.167,213 509.5,215C 511.667,215.833 513.167,217.333 514,219.5C 514.151,226.896 514.818,234.229 516,241.5C 518.695,246.275 522.529,247.775 527.5,246C 548.527,222.986 574.527,209.82 605.5,206.5 Z"/></g>
<g><path style="opacity:0.988" fill="#e51f25" d="M 858.5,300.5 C 908.975,300.133 944.475,322.799 965,368.5C 981.501,418.979 969.001,460.479 927.5,493C 925.299,493.825 923.466,493.325 922,491.5C 912.134,472.263 901.634,453.43 890.5,435C 889.167,434.333 887.833,433.667 886.5,433C 872.167,432.333 857.833,432.333 843.5,433C 842.167,433.667 840.833,434.333 839.5,435C 828.953,453.259 818.786,471.759 809,490.5C 808.044,491.894 806.711,492.561 805,492.5C 779.418,475.044 764.751,450.711 761,419.5C 757.65,364.336 781.483,326.502 832.5,306C 841.188,303.613 849.855,301.78 858.5,300.5 Z"/></g>
</svg>
